<svg xmlns="http://www.w3.org/2000/svg" viewBox="0 0 512 512">
<defs>
  <radialGradient id="gBg" cx="50%" cy="38%" r="75%">
    <stop offset="0%" stop-color="#1a3423"/>
    <stop offset="60%" stop-color="#0f1f14"/>
    <stop offset="100%" stop-color="#080f0a"/>
  </radialGradient>
  <linearGradient id="gFoil" x1="0" y1="0" x2="0" y2="1">
    <stop offset="0%" stop-color="#ffeeb0"/>
    <stop offset="45%" stop-color="#f0c05a"/>
    <stop offset="100%" stop-color="#b97b16"/>
  </linearGradient>
  <linearGradient id="gFoilDeep" x1="0" y1="0" x2="0" y2="1">
    <stop offset="0%" stop-color="#ffe9a8"/>
    <stop offset="55%" stop-color="#e9a93c"/>
    <stop offset="100%" stop-color="#a86d12"/>
  </linearGradient>
  <linearGradient id="gRing" x1="0" y1="0" x2="0" y2="1">
    <stop offset="0%" stop-color="#f7d98a"/>
    <stop offset="100%" stop-color="#b9821f"/>
  </linearGradient></defs>
<rect width="512" height="512" rx="96" fill="url(#gBg)"/>

  
  <circle cx="256" cy="256" r="234" fill="none" stroke="url(#gRing)" stroke-width="6"/>
  <circle cx="256" cy="256" r="219" fill="none" stroke="url(#gRing)" stroke-width="1.6" opacity=".55"/>

  <!-- grove canopy behind the keep: clustered lobes, wider than the tower -->
  <g fill="url(#gFoilDeep)" opacity=".92">
    <circle cx="186" cy="196" r="46"/>
    <circle cx="326" cy="196" r="46"/>
    <circle cx="212" cy="136" r="44"/>
    <circle cx="300" cy="136" r="44"/>
    <circle cx="256" cy="112" r="50"/>
    <circle cx="160" cy="238" r="30"/>
    <circle cx="352" cy="238" r="30"/>
  </g>

  <!-- keep tower, clearly in front -->
  <g fill="url(#gFoil)" stroke="#0a130c" stroke-width="7" stroke-linejoin="round">
    <path d="
    M208 182 L208 150 L234 150 L234 182 Z
    M243 182 L243 150 L269 150 L269 182 Z
    M278 182 L278 150 L304 150 L304 182 Z"/>
    <path d="M214 202 L298 202 L306 390 L206 390 Z"/>
    <path d="M198 182 L314 182 L310 204 L202 204 Z"/>
    <path d="M196 390 L316 390 L324 408 L188 408 Z"/>
  </g>
  <!-- gate & window -->
  <path d="M238 408 L238 340 A18 18 0 0 1 274 340 L274 408 Z" fill="#0a130c"/>
  <path d="M249 268 L249 240 A7 7 0 0 1 263 240 L263 268 Z" fill="#0a130c"/>
  <!-- stone joints -->
  <g stroke="#0a130c" stroke-width="3" opacity=".5">
    <line x1="222" y1="244" x2="244" y2="244"/><line x1="268" y1="252" x2="290" y2="252"/>
    <line x1="222" y1="300" x2="246" y2="300"/><line x1="266" y1="308" x2="290" y2="308"/>
    <line x1="230" y1="352" x2="250" y2="352"/><line x1="264" y1="358" x2="284" y2="358"/>
  </g>

  <!-- ground -->
  <path d="M148 408 Q 256 432 364 408" fill="none" stroke="url(#gRing)" stroke-width="5"
    stroke-linecap="round" opacity=".75"/>

  <path d="M136 96 C137.056 105.36 138.64 106.944 148 108
    C138.64 109.056 137.056 110.64 136 120
    C134.944 110.64 133.36 109.056 124 108
    C133.36 106.944 134.944 105.36 136 96 Z"
    fill="#ffeeb0" opacity="1"/> <path d="M380 84 C380.704 90.24 381.76 91.296 388 92
    C381.76 92.704 380.704 93.76 380 100
    C379.296 93.76 378.24 92.704 372 92
    C378.24 91.296 379.296 90.24 380 84 Z"
    fill="#ffeeb0" opacity="0.9"/> <path d="M398 290 C398.528 294.68 399.32 295.472 404 296
    C399.32 296.528 398.528 297.32 398 302
    C397.472 297.32 396.68 296.528 392 296
    C396.68 295.472 397.472 294.68 398 290 Z"
    fill="#ffeeb0" opacity="0.7"/> <path d="M114 295 C114.44 298.9 115.1 299.56 119 300
    C115.1 300.44 114.44 301.1 114 305
    C113.56 301.1 112.9 300.44 109 300
    C112.9 299.56 113.56 298.9 114 295 Z"
    fill="#ffeeb0" opacity="0.6"/>
</svg>