<svg xmlns="http://www.w3.org/2000/svg" viewBox="0 0 1500 500">
<defs>
  <radialGradient id="gBg" cx="50%" cy="38%" r="75%">
    <stop offset="0%" stop-color="#1a3423"/>
    <stop offset="60%" stop-color="#0f1f14"/>
    <stop offset="100%" stop-color="#080f0a"/>
  </radialGradient>
  <linearGradient id="gFoil" x1="0" y1="0" x2="0" y2="1">
    <stop offset="0%" stop-color="#ffeeb0"/>
    <stop offset="45%" stop-color="#f0c05a"/>
    <stop offset="100%" stop-color="#b97b16"/>
  </linearGradient>
  <linearGradient id="gFoilDeep" x1="0" y1="0" x2="0" y2="1">
    <stop offset="0%" stop-color="#ffe9a8"/>
    <stop offset="55%" stop-color="#e9a93c"/>
    <stop offset="100%" stop-color="#a86d12"/>
  </linearGradient>
  <linearGradient id="gRing" x1="0" y1="0" x2="0" y2="1">
    <stop offset="0%" stop-color="#f7d98a"/>
    <stop offset="100%" stop-color="#b9821f"/>
  </linearGradient>
  <radialGradient id="gGlow" cx="50%" cy="50%" r="60%">
    <stop offset="0%" stop-color="#f0c05a" stop-opacity=".14"/>
    <stop offset="100%" stop-color="#f0c05a" stop-opacity="0"/>
  </radialGradient>
</defs>
<rect width="1500" height="500" fill="url(#gBg)"/>
<ellipse cx="750" cy="250" rx="620" ry="330" fill="url(#gGlow)"/>
<g transform="translate(408 250) scale(.76) translate(-256 -256)">
  
  <circle cx="256" cy="256" r="234" fill="none" stroke="url(#gRing)" stroke-width="6"/>
  <circle cx="256" cy="256" r="219" fill="none" stroke="url(#gRing)" stroke-width="1.6" opacity=".55"/>

  <!-- grove canopy behind the keep: clustered lobes, wider than the tower -->
  <g fill="url(#gFoilDeep)" opacity=".92">
    <circle cx="186" cy="196" r="46"/>
    <circle cx="326" cy="196" r="46"/>
    <circle cx="212" cy="136" r="44"/>
    <circle cx="300" cy="136" r="44"/>
    <circle cx="256" cy="112" r="50"/>
    <circle cx="160" cy="238" r="30"/>
    <circle cx="352" cy="238" r="30"/>
  </g>

  <!-- keep tower, clearly in front -->
  <g fill="url(#gFoil)" stroke="#0a130c" stroke-width="7" stroke-linejoin="round">
    <path d="
    M208 182 L208 150 L234 150 L234 182 Z
    M243 182 L243 150 L269 150 L269 182 Z
    M278 182 L278 150 L304 150 L304 182 Z"/>
    <path d="M214 202 L298 202 L306 390 L206 390 Z"/>
    <path d="M198 182 L314 182 L310 204 L202 204 Z"/>
    <path d="M196 390 L316 390 L324 408 L188 408 Z"/>
  </g>
  <!-- gate & window -->
  <path d="M238 408 L238 340 A18 18 0 0 1 274 340 L274 408 Z" fill="#0a130c"/>
  <path d="M249 268 L249 240 A7 7 0 0 1 263 240 L263 268 Z" fill="#0a130c"/>
  <!-- stone joints -->
  <g stroke="#0a130c" stroke-width="3" opacity=".5">
    <line x1="222" y1="244" x2="244" y2="244"/><line x1="268" y1="252" x2="290" y2="252"/>
    <line x1="222" y1="300" x2="246" y2="300"/><line x1="266" y1="308" x2="290" y2="308"/>
    <line x1="230" y1="352" x2="250" y2="352"/><line x1="264" y1="358" x2="284" y2="358"/>
  </g>

  <!-- ground -->
  <path d="M148 408 Q 256 432 364 408" fill="none" stroke="url(#gRing)" stroke-width="5"
    stroke-linecap="round" opacity=".75"/>

  <path d="M136 96 C137.056 105.36 138.64 106.944 148 108
    C138.64 109.056 137.056 110.64 136 120
    C134.944 110.64 133.36 109.056 124 108
    C133.36 106.944 134.944 105.36 136 96 Z"
    fill="#ffeeb0" opacity="1"/> <path d="M380 84 C380.704 90.24 381.76 91.296 388 92
    C381.76 92.704 380.704 93.76 380 100
    C379.296 93.76 378.24 92.704 372 92
    C378.24 91.296 379.296 90.24 380 84 Z"
    fill="#ffeeb0" opacity="0.9"/> <path d="M398 290 C398.528 294.68 399.32 295.472 404 296
    C399.32 296.528 398.528 297.32 398 302
    C397.472 297.32 396.68 296.528 392 296
    C396.68 295.472 397.472 294.68 398 290 Z"
    fill="#ffeeb0" opacity="0.7"/> <path d="M114 295 C114.44 298.9 115.1 299.56 119 300
    C115.1 300.44 114.44 301.1 114 305
    C113.56 301.1 112.9 300.44 109 300
    C112.9 299.56 113.56 298.9 114 295 Z"
    fill="#ffeeb0" opacity="0.6"/></g>
<g>
  <linearGradient id="gWord" x1="0" y1="193.56" x2="0" y2="276.24" gradientUnits="userSpaceOnUse">
    <stop offset="0%" stop-color="#ffeeb0"/>
    <stop offset="55%" stop-color="#eeb448"/>
    <stop offset="100%" stop-color="#9c650f"/>
  </linearGradient>
  <path d="M664.74 274.33L636.12 198.44L658.91 198.44L674.17 236.38L664.74 274.33ZM691.66 196.10L692.62 196.10L695.27 207.87L668.56 262.57Q668.56 262.57 667.87 264.31Q667.18 266.06 666.49 268.71Q665.80 271.36 665.69 274.33L665.69 274.33L664.74 274.33L661.13 259.70L691.66 196.10ZM682.87 223.66L692.62 196.21L716.68 240.62L709.79 274.33L682.87 223.66ZM724.21 198.44L732.37 198.44L712.33 262.57Q712.33 262.57 711.80 264.42Q711.27 266.28 710.90 268.98Q710.53 271.68 710.85 274.33L710.85 274.33L709.79 274.33L705.65 263.84L724.21 198.44ZM730.14 205.43L722.19 205.43Q723.04 202.25 721.66 200.56Q720.28 198.86 718.16 198.86L718.16 198.86L717.21 198.86L717.21 197.80L740.32 197.80L740.32 198.86Q740.32 198.86 739.89 198.86Q739.47 198.86 739.47 198.86L739.47 198.86Q737.03 198.86 734.17 200.40Q731.31 201.93 730.14 205.43L730.14 205.43ZM661.77 205.43L661.77 205.43L638.77 205.43Q637.39 201.93 634.63 200.40Q631.88 198.86 629.44 198.86L629.44 198.86Q629.44 198.86 629.02 198.86Q628.59 198.86 628.59 198.86L628.59 198.86L628.59 197.80L666.65 197.80L666.65 198.86L665.69 198.86Q663.68 198.86 662.14 200.56Q660.61 202.25 661.77 205.43ZM762.26 197.80L783.99 197.80L783.99 272L762.26 272L762.26 197.80ZM762.26 264.26L762.58 264.26L762.58 272L754.10 272L754.10 270.94Q754.10 270.94 754.79 270.94Q755.48 270.94 755.48 270.94L755.48 270.94Q758.23 270.94 760.19 268.98Q762.15 267.02 762.26 264.26L762.26 264.26ZM762.58 197.80L762.58 205.54L762.26 205.54Q762.15 202.78 760.19 200.82Q758.23 198.86 755.48 198.86L755.48 198.86Q755.48 198.86 754.79 198.86Q754.10 198.86 754.10 198.86L754.10 198.86L754.10 197.80L762.58 197.80ZM783.67 272L783.67 264.26L783.99 264.26Q784.10 267.02 786.06 268.98Q788.02 270.94 790.77 270.94L790.77 270.94Q790.77 270.94 791.41 270.94Q792.05 270.94 792.15 270.94L792.15 270.94L792.15 272L783.67 272ZM783.99 205.54L783.67 205.54L783.67 197.80L792.15 197.80L792.15 198.86Q792.05 198.86 791.41 198.86Q790.77 198.86 790.77 198.86L790.77 198.86Q788.02 198.86 786.06 200.82Q784.10 202.78 783.99 205.54L783.99 205.54ZM821.41 197.80L843.14 197.80L843.14 272L821.41 272L821.41 197.80ZM842.82 266.59L870.70 266.59L874.94 272L842.82 272L842.82 266.59ZM878.22 247.41L879.28 247.41L875.26 272L852.36 272L856.18 266.59Q861.26 266.59 865.66 264.31Q870.06 262.04 873.35 257.74Q876.63 253.45 878.22 247.41L878.22 247.41ZM821.41 264.26L821.73 264.26L821.73 272L813.25 272L813.25 270.94Q813.25 270.94 813.93 270.94Q814.62 270.94 814.62 270.94L814.62 270.94Q817.38 270.94 819.34 268.98Q821.30 267.02 821.41 264.26L821.41 264.26ZM821.73 197.80L821.73 205.54L821.41 205.54Q821.30 202.78 819.34 200.82Q817.38 198.86 814.62 198.86L814.62 198.86Q814.62 198.86 813.93 198.86Q813.25 198.86 813.25 198.86L813.25 198.86L813.25 197.80L821.73 197.80ZM843.14 205.54L842.82 205.54L842.82 197.80L851.30 197.80L851.30 198.86Q851.19 198.86 850.56 198.86Q849.92 198.86 849.92 198.86L849.92 198.86Q847.17 198.86 845.20 200.82Q843.24 202.78 843.14 205.54L843.14 205.54ZM909.28 197.80L937.37 197.80Q950.62 197.80 960.11 202.20Q969.60 206.60 974.63 214.92Q979.67 223.24 979.67 234.90L979.67 234.90Q979.67 246.56 974.63 254.88Q969.60 263.20 960.11 267.60Q950.62 272 937.37 272L937.37 272L910.45 272L910.34 266.70Q915.43 266.70 919.46 266.70Q923.49 266.70 926.45 266.70Q929.42 266.70 931.38 266.70Q933.34 266.70 934.30 266.70Q935.25 266.70 935.25 266.70L935.25 266.70Q941.93 266.70 946.65 262.88Q951.36 259.07 953.85 251.97Q956.35 244.86 956.35 234.90L956.35 234.90Q956.35 224.94 953.85 217.83Q951.36 210.73 946.65 206.92Q941.93 203.10 935.25 203.10L935.25 203.10Q935.25 203.10 934.24 203.10Q933.24 203.10 931.17 203.10Q929.10 203.10 926.03 203.10Q922.96 203.10 918.77 203.10Q914.58 203.10 909.28 203.10L909.28 203.10L909.28 197.80ZM905.36 197.80L927.09 197.80L927.09 272L905.36 272L905.36 197.80ZM905.36 264.26L905.68 264.26L905.68 272L897.20 272L897.20 270.94Q897.20 270.94 897.89 270.94Q898.58 270.94 898.58 270.94L898.58 270.94Q901.33 270.94 903.29 268.98Q905.25 267.02 905.36 264.26L905.36 264.26ZM905.68 197.80L905.68 205.54L905.36 205.54Q905.36 202.78 903.35 200.82Q901.33 198.86 898.58 198.86L898.58 198.86Q898.58 198.86 897.94 198.86Q897.30 198.86 897.30 198.86L897.30 198.86L897.20 197.80L905.68 197.80ZM1034.57 238.29L1050.37 223.24L1076.65 262.88Q1079.20 266.81 1081.95 268.82Q1084.71 270.83 1088.00 270.94L1088.00 270.94L1088.00 272L1076.55 272Q1075.38 272 1072.20 271.89Q1069.02 271.79 1064.89 270.94Q1060.76 270.09 1056.57 267.87Q1052.38 265.64 1049.31 261.40L1049.31 261.40Q1048.46 260.23 1047.08 258.17Q1045.70 256.10 1044.06 253.50Q1042.42 250.91 1040.72 248.26Q1039.03 245.61 1037.65 243.38Q1036.27 241.15 1035.42 239.72Q1034.57 238.29 1034.57 238.29L1034.57 238.29ZM1063.72 198.54L1074.32 198.54L1042.31 237.23L1034.57 238.29L1063.72 198.54ZM1081.42 197.80L1081.85 197.80L1081.85 198.75L1081.42 198.75Q1077.93 198.75 1074.91 200.19Q1071.88 201.62 1069.77 203.95L1069.77 203.95L1059.91 203.74Q1061.18 201.93 1060.38 200.34Q1059.59 198.75 1057.36 198.75L1057.36 198.75L1056.30 198.75L1056.30 197.80L1081.42 197.80ZM1009.45 197.80L1031.18 197.80L1031.18 272L1009.45 272L1009.45 197.80ZM1009.45 264.26L1009.77 264.26L1009.77 272L1001.29 272L1001.29 270.94Q1001.50 270.94 1002.03 270.94Q1002.56 270.94 1002.67 270.94L1002.67 270.94Q1005.42 270.94 1007.38 268.98Q1009.35 267.02 1009.45 264.26L1009.45 264.26ZM1009.77 197.80L1009.77 205.54L1009.45 205.54Q1009.35 202.78 1007.38 200.82Q1005.42 198.86 1002.67 198.86L1002.67 198.86Q1002.56 198.86 1002.03 198.86Q1001.50 198.86 1001.29 198.86L1001.29 198.86L1001.29 197.80L1009.77 197.80ZM1030.86 272L1030.86 264.26L1031.18 264.26Q1031.29 267.02 1033.25 268.98Q1035.21 270.94 1037.97 270.94L1037.97 270.94Q1038.18 270.94 1038.71 270.94Q1039.24 270.94 1039.34 270.94L1039.34 270.94L1039.34 272L1030.86 272ZM1031.18 205.54L1030.86 205.54L1030.86 197.80L1039.34 197.80L1039.34 198.86Q1039.24 198.86 1038.71 198.86Q1038.18 198.86 1037.97 198.86L1037.97 198.86Q1035.21 198.86 1033.25 200.82Q1031.29 202.78 1031.18 205.54L1031.18 205.54ZM1111.42 197.80L1133.15 197.80L1133.15 272L1111.42 272L1111.42 197.80ZM1132.84 266.59L1160.71 266.59L1164.95 272L1132.84 272L1132.84 266.59ZM1132.84 232.78L1157.22 232.78L1157.22 238.08L1132.84 238.08L1132.84 232.78ZM1132.84 197.80L1162.83 197.80L1162.83 203.21L1132.84 203.21L1132.84 197.80ZM1168.24 247.41L1169.30 247.41L1165.27 272L1142.38 272L1146.19 266.59Q1151.28 266.59 1155.68 264.31Q1160.08 262.04 1163.36 257.74Q1166.65 253.45 1168.24 247.41L1168.24 247.41ZM1144.71 237.87L1157.22 237.87L1157.22 250.16L1156.16 250.16L1156.16 249.63Q1156.16 244.65 1152.92 241.42Q1149.69 238.19 1144.71 238.08L1144.71 238.08L1144.71 237.87ZM1156.16 220.70L1157.22 220.70L1157.22 232.99L1144.71 232.99L1144.71 232.78Q1149.69 232.67 1152.98 229.39Q1156.26 226.10 1156.16 221.12L1156.16 221.12L1156.16 220.70ZM1148.10 202.89L1162.83 202.89L1162.83 217.73L1161.77 217.73L1161.77 216.88Q1161.77 210.52 1158.17 206.86Q1154.57 203.21 1148.10 203.10L1148.10 203.10L1148.10 202.89ZM1162.83 195.89L1162.83 195.89L1162.83 198.97L1149.90 197.80Q1152.23 197.80 1154.83 197.48Q1157.43 197.16 1159.65 196.74Q1161.88 196.32 1162.83 195.89ZM1111.42 264.26L1111.74 264.26L1111.74 272L1103.26 272L1103.26 270.94Q1103.26 270.94 1103.95 270.94Q1104.64 270.94 1104.64 270.94L1104.64 270.94Q1107.40 270.94 1109.36 268.98Q1111.32 267.02 1111.42 264.26L1111.42 264.26ZM1111.74 197.80L1111.74 205.54L1111.42 205.54Q1111.32 202.78 1109.36 200.82Q1107.40 198.86 1104.64 198.86L1104.64 198.86Q1104.64 198.86 1103.95 198.86Q1103.26 198.86 1103.26 198.86L1103.26 198.86L1103.26 197.80L1111.74 197.80ZM1196.97 197.80L1218.69 197.80L1218.69 272L1196.97 272L1196.97 197.80ZM1218.38 266.59L1246.26 266.59L1250.50 272L1218.38 272L1218.38 266.59ZM1218.38 232.78L1242.76 232.78L1242.76 238.08L1218.38 238.08L1218.38 232.78ZM1218.38 197.80L1248.38 197.80L1248.38 203.21L1218.38 203.21L1218.38 197.80ZM1253.78 247.41L1254.84 247.41L1250.81 272L1227.92 272L1231.73 266.59Q1236.82 266.59 1241.22 264.31Q1245.62 262.04 1248.90 257.74Q1252.19 253.45 1253.78 247.41L1253.78 247.41ZM1230.25 237.87L1242.76 237.87L1242.76 250.16L1241.70 250.16L1241.70 249.63Q1241.70 244.65 1238.46 241.42Q1235.23 238.19 1230.25 238.08L1230.25 238.08L1230.25 237.87ZM1241.70 220.70L1242.76 220.70L1242.76 232.99L1230.25 232.99L1230.25 232.78Q1235.23 232.67 1238.52 229.39Q1241.80 226.10 1241.70 221.12L1241.70 221.12L1241.70 220.70ZM1233.64 202.89L1248.38 202.89L1248.38 217.73L1247.32 217.73L1247.32 216.88Q1247.32 210.52 1243.71 206.86Q1240.11 203.21 1233.64 203.10L1233.64 203.10L1233.64 202.89ZM1248.38 195.89L1248.38 195.89L1248.38 198.97L1235.44 197.80Q1237.78 197.80 1240.37 197.48Q1242.97 197.16 1245.19 196.74Q1247.42 196.32 1248.38 195.89ZM1196.97 264.26L1197.28 264.26L1197.28 272L1188.80 272L1188.80 270.94Q1188.80 270.94 1189.49 270.94Q1190.18 270.94 1190.18 270.94L1190.18 270.94Q1192.94 270.94 1194.90 268.98Q1196.86 267.02 1196.97 264.26L1196.97 264.26ZM1197.28 197.80L1197.28 205.54L1196.97 205.54Q1196.86 202.78 1194.90 200.82Q1192.94 198.86 1190.18 198.86L1190.18 198.86Q1190.18 198.86 1189.49 198.86Q1188.80 198.86 1188.80 198.86L1188.80 198.86L1188.80 197.80L1197.28 197.80ZM1303.39 197.80L1303.39 197.80L1315.26 197.80Q1325.86 197.80 1332.12 200.61Q1338.37 203.42 1341.28 207.98Q1344.20 212.53 1344.52 218.05L1344.52 218.05Q1344.84 223.88 1342.77 228.65Q1340.70 233.42 1336.94 236.60Q1333.17 239.78 1328.40 241.10Q1323.63 242.43 1318.44 241.53Q1313.25 240.62 1308.37 237.13L1308.37 237.13L1308.37 236.07Q1308.37 236.07 1309.38 235.91Q1310.38 235.75 1311.97 235.11Q1313.57 234.48 1315.31 233.20Q1317.06 231.93 1318.65 229.55Q1320.24 227.16 1321.09 223.56L1321.09 223.56Q1321.51 221.97 1321.67 220.27Q1321.83 218.58 1321.73 217.20L1321.73 217.20Q1321.51 210.73 1318.07 206.92Q1314.63 203.10 1308.48 203.10L1308.48 203.10L1304.45 203.10Q1304.45 203.10 1304.18 201.78Q1303.92 200.45 1303.65 199.13Q1303.39 197.80 1303.39 197.80ZM1283.04 197.80L1304.77 197.80L1304.77 272L1283.04 272L1283.04 197.80ZM1283.04 264.26L1283.36 264.26L1283.36 272L1274.88 272L1274.88 270.94Q1275.09 270.94 1275.62 270.94Q1276.15 270.94 1276.25 270.94L1276.25 270.94Q1279.01 270.94 1280.97 268.98Q1282.93 267.02 1283.04 264.26L1283.04 264.26ZM1283.36 197.80L1283.36 205.54L1283.04 205.54Q1283.04 202.78 1281.02 200.82Q1279.01 198.86 1276.25 198.86L1276.25 198.86Q1276.15 198.86 1275.67 198.86Q1275.19 198.86 1274.98 198.86L1274.98 198.86L1274.88 197.80L1283.36 197.80ZM1304.45 272L1304.45 264.26L1304.77 264.26Q1304.87 267.02 1306.83 268.98Q1308.80 270.94 1311.55 270.94L1311.55 270.94Q1311.76 270.94 1312.29 270.94Q1312.82 270.94 1312.93 270.94L1312.93 270.94L1312.93 272L1304.45 272Z" fill="url(#gWord)"/></g>

  <g stroke="#d9a83f" stroke-width="2.4" fill="#d9a83f">
    <line x1="695" y1="326" x2="964" y2="326"/>
    <line x1="1016" y1="326" x2="1285" y2="326"/>
    <path d="M990 315 L1001 326 L990 337 L979 326 Z"/>
    <circle cx="695" cy="326" r="3" stroke="none"/>
    <circle cx="1285" cy="326" r="3" stroke="none"/>
  </g>
<path d="M721.69 373.80L728.17 373.80Q731.23 373.80 733.47 374.90Q735.71 376.01 736.92 378.05Q738.13 380.09 738.13 382.90L738.13 382.90Q738.13 385.71 736.92 387.75Q735.71 389.79 733.47 390.89Q731.23 392 728.17 392L728.17 392L721.98 392L721.95 390.91Q722.71 390.91 723.53 390.91Q724.34 390.91 725.13 390.91Q725.90 390.91 726.52 390.91Q727.13 390.91 727.49 390.91Q727.85 390.91 727.85 390.91L727.85 390.91Q729.73 390.91 731.08 389.93Q732.43 388.96 733.16 387.16Q733.89 385.37 733.89 382.90L733.89 382.90Q733.89 380.43 733.16 378.64Q732.43 376.84 731.08 375.87Q729.73 374.89 727.85 374.89L727.85 374.89Q727.85 374.89 727.48 374.89Q727.10 374.89 726.45 374.89Q725.80 374.89 724.99 374.89Q724.19 374.89 723.33 374.89Q722.47 374.89 721.69 374.89L721.69 374.89L721.69 373.80ZM720.73 373.80L724.63 373.80L724.63 392L720.73 392L720.73 373.80ZM720.73 390.10L720.81 390.10L720.81 392L718.73 392L718.73 391.74Q718.73 391.74 718.90 391.74Q719.07 391.74 719.07 391.74L719.07 391.74Q719.74 391.74 720.22 391.26Q720.70 390.78 720.73 390.10L720.73 390.10ZM720.81 373.80L720.81 375.70L720.73 375.70Q720.73 375.02 720.24 374.54Q719.74 374.06 719.07 374.06L719.07 374.06Q719.07 374.06 718.91 374.06Q718.75 374.06 718.75 374.06L718.75 374.06L718.73 373.80L720.81 373.80ZM753.18 373.80L757.08 373.80L757.08 392L753.18 392L753.18 373.80ZM757.00 390.88L763.94 390.88L764.57 392L757.00 392L757.00 390.88ZM757.00 382.48L762.98 382.48L762.98 383.58L757.00 383.58L757.00 382.48ZM757.00 373.80L764.25 373.80L764.25 374.92L757.00 374.92L757.00 373.80ZM765.58 386.67L765.84 386.67L764.64 392L759.55 392L760.48 390.88Q761.78 390.88 762.77 390.38Q763.76 389.87 764.46 388.92Q765.16 387.97 765.58 386.67L765.58 386.67ZM760.51 383.52L762.98 383.52L762.98 386.02L762.72 386.02L762.72 385.81Q762.72 384.85 762.10 384.23Q761.47 383.60 760.51 383.58L760.51 383.58L760.51 383.52ZM762.72 380.04L762.98 380.04L762.98 382.54L760.51 382.54L760.51 382.48Q761.47 382.46 762.10 381.82Q762.72 381.18 762.72 380.22L762.72 380.22L762.72 380.04ZM761.34 374.84L764.25 374.84L764.25 377.88L763.99 377.88L763.99 377.57Q763.99 376.37 763.28 375.65Q762.56 374.92 761.34 374.89L761.34 374.89L761.34 374.84ZM764.25 373.33L764.25 373.33L764.25 374.09L761.08 373.80Q761.65 373.80 762.29 373.72Q762.93 373.64 763.47 373.54Q764.02 373.44 764.25 373.33ZM753.18 390.10L753.26 390.10L753.26 392L751.18 392L751.18 391.74Q751.18 391.74 751.35 391.74Q751.51 391.74 751.51 391.74L751.51 391.74Q752.19 391.74 752.67 391.26Q753.15 390.78 753.18 390.10L753.18 390.10ZM753.26 373.80L753.26 375.70L753.18 375.70Q753.15 375.02 752.67 374.54Q752.19 374.06 751.51 374.06L751.51 374.06Q751.51 374.06 751.35 374.06Q751.18 374.06 751.18 374.06L751.18 374.06L751.18 373.80L753.26 373.80ZM780.53 373.80L784.43 373.80L784.43 392L780.53 392L780.53 373.80ZM784.35 382.48L790.33 382.48L790.33 383.58L784.35 383.58L784.35 382.48ZM784.35 373.80L791.61 373.80L791.61 374.92L784.35 374.92L784.35 373.80ZM787.86 383.52L790.33 383.52L790.33 386.02L790.07 386.02L790.07 385.81Q790.07 384.85 789.45 384.23Q788.82 383.60 787.86 383.58L787.86 383.58L787.86 383.52ZM790.07 380.04L790.33 380.04L790.33 382.54L787.86 382.54L787.86 382.48Q788.82 382.46 789.45 381.82Q790.07 381.18 790.07 380.22L790.07 380.22L790.07 380.04ZM788.80 374.84L791.61 374.84L791.61 377.73L791.35 377.73L791.35 377.47Q791.35 376.30 790.66 375.61Q789.97 374.92 788.80 374.92L788.80 374.92L788.80 374.84ZM791.61 373.33L791.61 373.33L791.61 374.09L788.43 373.80Q789.01 373.80 789.64 373.72Q790.28 373.64 790.83 373.54Q791.37 373.44 791.61 373.33ZM780.53 390.10L780.61 390.10L780.61 392L778.53 392L778.53 391.74Q778.53 391.74 778.70 391.74Q778.87 391.74 778.87 391.74L778.87 391.74Q779.54 391.74 780.02 391.26Q780.50 390.78 780.53 390.10L780.53 390.10ZM780.61 373.80L780.61 375.70L780.53 375.70Q780.50 375.02 780.02 374.54Q779.54 374.06 778.87 374.06L778.87 374.06Q778.87 374.06 778.70 374.06Q778.53 374.06 778.53 374.06L778.53 374.06L778.53 373.80L780.61 373.80ZM784.35 392L784.35 390.10L784.43 390.10Q784.46 390.78 784.94 391.26Q785.42 391.74 786.09 391.74L786.09 391.74Q786.09 391.74 786.25 391.74Q786.41 391.74 786.43 391.74L786.43 391.74L786.43 392L784.35 392ZM806.95 373.80L810.85 373.80L810.85 392L806.95 392L806.95 373.80ZM810.77 390.88L817.71 390.88L818.33 392L810.77 392L810.77 390.88ZM810.77 382.48L816.75 382.48L816.75 383.58L810.77 383.58L810.77 382.48ZM810.77 373.80L818.02 373.80L818.02 374.92L810.77 374.92L810.77 373.80ZM819.35 386.67L819.61 386.67L818.41 392L813.32 392L814.25 390.88Q815.55 390.88 816.54 390.38Q817.53 389.87 818.23 388.92Q818.93 387.97 819.35 386.67L819.35 386.67ZM814.28 383.52L816.75 383.52L816.75 386.02L816.49 386.02L816.49 385.81Q816.49 384.85 815.86 384.23Q815.24 383.60 814.28 383.58L814.28 383.58L814.28 383.52ZM816.49 380.04L816.75 380.04L816.75 382.54L814.28 382.54L814.28 382.48Q815.24 382.46 815.86 381.82Q816.49 381.18 816.49 380.22L816.49 380.22L816.49 380.04ZM815.11 374.84L818.02 374.84L818.02 377.88L817.76 377.88L817.76 377.57Q817.76 376.37 817.05 375.65Q816.33 374.92 815.11 374.89L815.11 374.89L815.11 374.84ZM818.02 373.33L818.02 373.33L818.02 374.09L814.85 373.80Q815.42 373.80 816.06 373.72Q816.70 373.64 817.24 373.54Q817.79 373.44 818.02 373.33ZM806.95 390.10L807.02 390.10L807.02 392L804.94 392L804.94 391.74Q804.94 391.74 805.11 391.74Q805.28 391.74 805.28 391.74L805.28 391.74Q805.96 391.74 806.44 391.26Q806.92 390.78 806.95 390.10L806.95 390.10ZM807.02 373.80L807.02 375.70L806.95 375.70Q806.92 375.02 806.44 374.54Q805.96 374.06 805.28 374.06L805.28 374.06Q805.28 374.06 805.11 374.06Q804.94 374.06 804.94 374.06L804.94 374.06L804.94 373.80L807.02 373.80ZM834.32 376.58L834.01 373.41L850.60 389.22L850.91 392.36L834.32 376.58ZM834.06 390.15L834.14 390.15L834.14 392L831.98 392L831.98 391.74Q831.98 391.74 832.22 391.74Q832.45 391.74 832.48 391.74L832.48 391.74Q833.13 391.74 833.60 391.27Q834.06 390.80 834.06 390.15L834.06 390.15ZM837.70 390.15L837.78 390.15Q837.78 390.80 838.25 391.27Q838.72 391.74 839.37 391.74L839.37 391.74Q839.39 391.74 839.63 391.74Q839.86 391.74 839.86 391.74L839.86 391.74L839.86 392L837.70 392L837.70 390.15ZM833.75 373.41L834.01 373.41L837.76 377.39L837.78 392L834.06 392L834.06 376.66Q834.06 375.20 833.91 374.31Q833.75 373.41 833.75 373.41L833.75 373.41ZM847.14 373.80L850.83 373.80L850.83 389.04Q850.83 390.00 850.91 390.76Q850.99 391.53 851.07 391.95Q851.15 392.36 851.15 392.36L851.15 392.36L850.91 392.36L847.14 388.15L847.14 373.80ZM850.76 373.80L852.91 373.80L852.91 374.06Q852.91 374.06 852.68 374.06Q852.45 374.06 852.45 374.06L852.45 374.06Q851.80 374.06 851.33 374.51Q850.86 374.97 850.83 375.65L850.83 375.65L850.76 375.65L850.76 373.80ZM845.04 374.06L845.04 373.80L847.19 373.80L847.19 375.65L847.14 375.65Q847.12 374.97 846.66 374.51Q846.21 374.06 845.53 374.06L845.53 374.06Q845.53 374.06 845.30 374.06Q845.06 374.06 845.04 374.06L845.04 374.06ZM871.82 373.44L871.82 373.44Q872.34 373.44 873.10 373.49Q873.87 373.54 874.69 373.63Q875.51 373.72 876.12 373.81Q876.73 373.90 876.96 374.01L876.96 374.01L876.65 377.52L876.39 377.52Q876.39 376.17 875.39 375.35Q874.39 374.53 872.73 374.53L872.73 374.53Q871.22 374.53 870.30 375.26Q869.37 375.98 869.32 377.02L869.32 377.02Q869.29 377.80 869.81 378.38Q870.33 378.95 871.14 379.44L871.14 379.44L876.11 382.67Q877.30 383.34 877.91 384.43Q878.52 385.53 878.45 386.98L878.45 386.98Q878.32 389.53 876.50 390.95Q874.68 392.36 871.56 392.36L871.56 392.36Q870.41 392.36 869.33 392.17Q868.25 391.97 867.42 391.62Q866.59 391.27 866.10 390.78L866.10 390.78Q865.89 390.21 865.91 389.40Q865.94 388.59 866.16 387.76Q866.38 386.93 866.72 386.38L866.72 386.38L866.95 386.38Q866.85 387.71 867.44 388.84Q868.02 389.97 869.15 390.63Q870.28 391.30 871.84 391.27L871.84 391.27Q873.56 391.25 874.49 390.40Q875.43 389.56 875.43 388.36L875.43 388.36Q875.43 387.55 874.95 386.90Q874.47 386.25 873.38 385.66L873.38 385.66L868.83 382.64Q867.45 381.86 866.82 380.64Q866.20 379.42 866.33 377.99L866.33 377.99Q866.46 376.63 867.14 375.61Q867.81 374.58 869.00 374.01Q870.18 373.44 871.82 373.44ZM873.87 373.70L876.99 373.70L876.94 374.24L873.87 374.24L873.87 373.70ZM893.66 373.80L897.56 373.80L897.56 392L893.66 392L893.66 373.80ZM897.48 390.88L904.42 390.88L905.04 392L897.48 392L897.48 390.88ZM897.48 382.48L903.46 382.48L903.46 383.58L897.48 383.58L897.48 382.48ZM897.48 373.80L904.73 373.80L904.73 374.92L897.48 374.92L897.48 373.80ZM906.06 386.67L906.32 386.67L905.12 392L900.03 392L900.96 390.88Q902.26 390.88 903.25 390.38Q904.24 389.87 904.94 388.92Q905.64 387.97 906.06 386.67L906.06 386.67ZM900.99 383.52L903.46 383.52L903.46 386.02L903.20 386.02L903.20 385.81Q903.20 384.85 902.57 384.23Q901.95 383.60 900.99 383.58L900.99 383.58L900.99 383.52ZM903.20 380.04L903.46 380.04L903.46 382.54L900.99 382.54L900.99 382.48Q901.95 382.46 902.57 381.82Q903.20 381.18 903.20 380.22L903.20 380.22L903.20 380.04ZM901.82 374.84L904.73 374.84L904.73 377.88L904.47 377.88L904.47 377.57Q904.47 376.37 903.76 375.65Q903.04 374.92 901.82 374.89L901.82 374.89L901.82 374.84ZM904.73 373.33L904.73 373.33L904.73 374.09L901.56 373.80Q902.13 373.80 902.77 373.72Q903.41 373.64 903.95 373.54Q904.50 373.44 904.73 373.33ZM893.66 390.10L893.73 390.10L893.73 392L891.65 392L891.65 391.74Q891.65 391.74 891.82 391.74Q891.99 391.74 891.99 391.74L891.99 391.74Q892.67 391.74 893.15 391.26Q893.63 390.78 893.66 390.10L893.66 390.10ZM893.73 373.80L893.73 375.70L893.66 375.70Q893.63 375.02 893.15 374.54Q892.67 374.06 891.99 374.06L891.99 374.06Q891.99 374.06 891.82 374.06Q891.65 374.06 891.65 374.06L891.65 374.06L891.65 373.80L893.73 373.80ZM946.83 373.44L946.83 373.44Q949.95 373.44 952.25 374.59Q954.55 375.75 955.81 377.86Q957.07 379.96 957.07 382.90L957.07 382.90Q957.07 385.81 955.81 387.93Q954.55 390.05 952.25 391.21Q949.95 392.36 946.83 392.36L946.83 392.36Q943.71 392.36 941.41 391.21Q939.10 390.05 937.86 387.94Q936.61 385.84 936.61 382.90L936.61 382.90Q936.61 379.99 937.86 377.87Q939.10 375.75 941.41 374.59Q943.71 373.44 946.83 373.44ZM946.83 391.27L946.83 391.27Q948.67 391.27 950.00 390.25Q951.32 389.22 952.05 387.35Q952.78 385.47 952.78 382.90L952.78 382.90Q952.78 380.33 952.05 378.45Q951.32 376.58 950.00 375.56Q948.67 374.53 946.83 374.53L946.83 374.53Q945.01 374.53 943.67 375.56Q942.33 376.58 941.60 378.45Q940.87 380.33 940.87 382.90L940.87 382.90Q940.87 385.47 941.60 387.35Q942.33 389.22 943.67 390.25Q945.01 391.27 946.83 391.27ZM972.20 373.80L976.10 373.80L976.10 392L972.20 392L972.20 373.80ZM976.02 382.48L982.00 382.48L982.00 383.58L976.02 383.58L976.02 382.48ZM976.02 373.80L983.28 373.80L983.28 374.92L976.02 374.92L976.02 373.80ZM979.53 383.52L982.00 383.52L982.00 386.02L981.74 386.02L981.74 385.81Q981.74 384.85 981.12 384.23Q980.50 383.60 979.53 383.58L979.53 383.58L979.53 383.52ZM981.74 380.04L982.00 380.04L982.00 382.54L979.53 382.54L979.53 382.48Q980.50 382.46 981.12 381.82Q981.74 381.18 981.74 380.22L981.74 380.22L981.74 380.04ZM980.47 374.84L983.28 374.84L983.28 377.73L983.02 377.73L983.02 377.47Q983.02 376.30 982.33 375.61Q981.64 374.92 980.47 374.92L980.47 374.92L980.47 374.84ZM983.28 373.33L983.28 373.33L983.28 374.09L980.11 373.80Q980.68 373.80 981.32 373.72Q981.95 373.64 982.50 373.54Q983.04 373.44 983.28 373.33ZM972.20 390.10L972.28 390.10L972.28 392L970.20 392L970.20 391.74Q970.20 391.74 970.37 391.74Q970.54 391.74 970.54 391.74L970.54 391.74Q971.21 391.74 971.70 391.26Q972.18 390.78 972.20 390.10L972.20 390.10ZM972.28 373.80L972.28 375.70L972.20 375.70Q972.18 375.02 971.70 374.54Q971.21 374.06 970.54 374.06L970.54 374.06Q970.54 374.06 970.37 374.06Q970.20 374.06 970.20 374.06L970.20 374.06L970.20 373.80L972.28 373.80ZM976.02 392L976.02 390.10L976.10 390.10Q976.13 390.78 976.61 391.26Q977.09 391.74 977.77 391.74L977.77 391.74Q977.77 391.74 977.92 391.74Q978.08 391.74 978.10 391.74L978.10 391.74L978.10 392L976.02 392ZM1019.68 373.88L1023.58 373.88L1023.58 392L1019.68 392L1019.68 373.88ZM1013.31 373.77L1029.95 373.77L1029.95 374.87L1013.31 374.87L1013.31 373.77ZM1027.04 374.79L1029.95 374.79L1029.95 377.86L1029.69 377.83L1029.69 377.54Q1029.69 376.32 1028.97 375.61Q1028.26 374.89 1027.04 374.87L1027.04 374.87L1027.04 374.79ZM1029.95 373.31L1029.95 373.31L1029.95 374.06L1026.78 373.77Q1027.35 373.77 1027.99 373.70Q1028.62 373.62 1029.17 373.51Q1029.71 373.41 1029.95 373.31ZM1019.68 390.10L1019.76 390.10L1019.76 392L1017.68 392L1017.68 391.74Q1017.68 391.74 1017.85 391.74Q1018.01 391.74 1018.01 391.74L1018.01 391.74Q1018.69 391.74 1019.17 391.26Q1019.65 390.78 1019.68 390.10L1019.68 390.10ZM1023.50 392L1023.50 390.10L1023.58 390.10Q1023.60 390.78 1024.09 391.26Q1024.57 391.74 1025.24 391.74L1025.24 391.74Q1025.24 391.74 1025.41 391.74Q1025.58 391.74 1025.58 391.74L1025.58 391.74L1025.58 392L1023.50 392ZM1013.31 374.79L1016.19 374.79L1016.19 374.87Q1015.00 374.89 1014.28 375.61Q1013.57 376.32 1013.57 377.54L1013.57 377.54L1013.57 377.83L1013.31 377.86L1013.31 374.79ZM1013.31 374.06L1013.31 373.31Q1013.57 373.41 1014.10 373.51Q1014.63 373.62 1015.28 373.70Q1015.93 373.77 1016.48 373.77L1016.48 373.77L1013.31 374.06ZM1056.62 373.80L1060.52 373.80L1060.52 392L1056.62 392L1056.62 373.80ZM1044.30 373.80L1048.20 373.80L1048.20 392L1044.30 392L1044.30 373.80ZM1047.94 382.38L1056.86 382.38L1056.86 383.50L1047.94 383.50L1047.94 382.38ZM1044.30 390.10L1044.38 390.10L1044.38 392L1042.30 392L1042.30 391.74Q1042.30 391.74 1042.47 391.74Q1042.64 391.74 1042.64 391.74L1042.64 391.74Q1043.31 391.74 1043.79 391.26Q1044.27 390.78 1044.30 390.10L1044.30 390.10ZM1044.38 373.80L1044.38 375.70L1044.30 375.70Q1044.27 375.02 1043.79 374.54Q1043.31 374.06 1042.64 374.06L1042.64 374.06Q1042.64 374.06 1042.47 374.06Q1042.30 374.06 1042.30 374.06L1042.30 374.06L1042.30 373.80L1044.38 373.80ZM1048.12 392L1048.12 390.10L1048.20 390.10Q1048.23 390.78 1048.71 391.26Q1049.19 391.74 1049.86 391.74L1049.86 391.74Q1049.86 391.74 1050.02 391.74Q1050.18 391.74 1050.20 391.74L1050.20 391.74L1050.20 392L1048.12 392ZM1048.20 375.70L1048.12 375.70L1048.12 373.80L1050.20 373.80L1050.20 374.06Q1050.18 374.06 1050.02 374.06Q1049.86 374.06 1049.86 374.06L1049.86 374.06Q1049.19 374.06 1048.71 374.54Q1048.23 375.02 1048.20 375.70L1048.20 375.70ZM1056.62 390.10L1056.70 390.10L1056.70 392L1054.62 392L1054.62 391.74Q1054.65 391.74 1054.80 391.74Q1054.96 391.74 1054.96 391.74L1054.96 391.74Q1055.64 391.74 1056.13 391.26Q1056.62 390.78 1056.62 390.10L1056.62 390.10ZM1056.70 373.80L1056.70 375.70L1056.62 375.70Q1056.62 375.02 1056.13 374.54Q1055.64 374.06 1054.96 374.06L1054.96 374.06Q1054.96 374.06 1054.80 374.06Q1054.65 374.06 1054.62 374.06L1054.62 374.06L1054.62 373.80L1056.70 373.80ZM1060.45 392L1060.45 390.10L1060.52 390.10Q1060.55 390.78 1061.03 391.26Q1061.51 391.74 1062.19 391.74L1062.19 391.74Q1062.19 391.74 1062.36 391.74Q1062.53 391.74 1062.53 391.74L1062.53 391.74L1062.53 392L1060.45 392ZM1060.52 375.70L1060.45 375.70L1060.45 373.80L1062.53 373.80L1062.53 374.06Q1062.53 374.06 1062.36 374.06Q1062.19 374.06 1062.19 374.06L1062.19 374.06Q1061.51 374.06 1061.03 374.54Q1060.55 375.02 1060.52 375.70L1060.52 375.70ZM1077.63 373.80L1081.53 373.80L1081.53 392L1077.63 392L1077.63 373.80ZM1081.45 390.88L1088.40 390.88L1089.02 392L1081.45 392L1081.45 390.88ZM1081.45 382.48L1087.43 382.48L1087.43 383.58L1081.45 383.58L1081.45 382.48ZM1081.45 373.80L1088.71 373.80L1088.71 374.92L1081.45 374.92L1081.45 373.80ZM1090.03 386.67L1090.29 386.67L1089.10 392L1084.00 392L1084.94 390.88Q1086.24 390.88 1087.23 390.38Q1088.21 389.87 1088.92 388.92Q1089.62 387.97 1090.03 386.67L1090.03 386.67ZM1084.96 383.52L1087.43 383.52L1087.43 386.02L1087.17 386.02L1087.17 385.81Q1087.17 384.85 1086.55 384.23Q1085.93 383.60 1084.96 383.58L1084.96 383.58L1084.96 383.52ZM1087.17 380.04L1087.43 380.04L1087.43 382.54L1084.96 382.54L1084.96 382.48Q1085.93 382.46 1086.55 381.82Q1087.17 381.18 1087.17 380.22L1087.17 380.22L1087.17 380.04ZM1085.80 374.84L1088.71 374.84L1088.71 377.88L1088.45 377.88L1088.45 377.57Q1088.45 376.37 1087.73 375.65Q1087.02 374.92 1085.80 374.89L1085.80 374.89L1085.80 374.84ZM1088.71 373.33L1088.71 373.33L1088.71 374.09L1085.54 373.80Q1086.11 373.80 1086.75 373.72Q1087.38 373.64 1087.93 373.54Q1088.47 373.44 1088.71 373.33ZM1077.63 390.10L1077.71 390.10L1077.71 392L1075.63 392L1075.63 391.74Q1075.63 391.74 1075.80 391.74Q1075.97 391.74 1075.97 391.74L1075.97 391.74Q1076.64 391.74 1077.13 391.26Q1077.61 390.78 1077.63 390.10L1077.63 390.10ZM1077.71 373.80L1077.71 375.70L1077.63 375.70Q1077.61 375.02 1077.13 374.54Q1076.64 374.06 1075.97 374.06L1075.97 374.06Q1075.97 374.06 1075.80 374.06Q1075.63 374.06 1075.63 374.06L1075.63 374.06L1075.63 373.80L1077.71 373.80ZM1138.94 384.72L1138.94 384.72L1138.94 389.01Q1138.32 389.79 1137.08 390.57Q1135.85 391.35 1134.13 391.86Q1132.41 392.36 1130.31 392.36L1130.31 392.36Q1127.35 392.36 1125.13 391.21Q1122.92 390.05 1121.70 387.92Q1120.48 385.79 1120.48 382.87L1120.48 382.87Q1120.48 379.96 1121.69 377.86Q1122.90 375.75 1125.15 374.59Q1127.40 373.44 1130.46 373.44L1130.46 373.44Q1131.89 373.44 1133.25 373.63Q1134.60 373.83 1135.74 374.14Q1136.89 374.45 1137.64 374.87L1137.64 374.87L1137.69 379.31L1137.46 379.31Q1136.96 377.54 1136.03 376.49Q1135.09 375.44 1133.86 374.98Q1132.62 374.53 1131.24 374.53L1131.24 374.53Q1129.14 374.53 1127.67 375.56Q1126.20 376.58 1125.46 378.48Q1124.72 380.38 1124.72 383.03L1124.72 383.03Q1124.72 385.53 1125.41 387.38Q1126.10 389.24 1127.42 390.25Q1128.75 391.25 1130.65 391.27L1130.65 391.27Q1131.61 391.27 1132.51 390.97Q1133.40 390.67 1134.08 390.10Q1134.75 389.53 1135.04 388.70L1135.04 388.70L1135.07 384.72Q1135.07 383.55 1133.74 383.55L1133.74 383.55L1133.32 383.55L1133.32 383.29L1140.63 383.29L1140.63 383.55L1140.24 383.55Q1138.89 383.55 1138.94 384.72ZM1158.70 373.80L1158.70 373.80L1162.05 373.80Q1163.22 373.80 1164.34 374.06Q1165.46 374.32 1166.33 374.89Q1167.20 375.46 1167.72 376.40Q1168.24 377.34 1168.24 378.71L1168.24 378.71Q1168.24 379.81 1167.79 380.88Q1167.33 381.96 1166.40 382.73Q1165.46 383.50 1163.98 383.65L1163.98 383.65Q1164.81 383.91 1165.50 384.59Q1166.19 385.27 1166.63 385.94L1166.63 385.94Q1166.66 385.99 1166.93 386.41Q1167.20 386.83 1167.61 387.44Q1168.01 388.05 1168.45 388.67Q1168.89 389.30 1169.26 389.76L1169.26 389.76Q1169.83 390.47 1170.30 390.89Q1170.76 391.32 1171.28 391.52Q1171.80 391.71 1172.48 391.74L1172.48 391.74L1172.48 392L1169.93 392Q1168.53 392 1167.38 391.75Q1166.24 391.51 1165.36 390.91Q1164.47 390.31 1163.82 389.30L1163.82 389.30Q1163.61 388.98 1163.37 388.50Q1163.12 388.02 1162.86 387.48Q1162.60 386.93 1162.35 386.42Q1162.11 385.92 1161.92 385.50Q1161.74 385.08 1161.66 384.85L1161.66 384.85Q1161.33 384.02 1160.87 383.60Q1160.42 383.19 1159.90 383.11L1159.90 383.11L1159.90 382.85Q1159.97 382.85 1160.21 382.85Q1160.44 382.85 1160.70 382.85L1160.70 382.85Q1161.40 382.85 1162.07 382.56Q1162.73 382.28 1163.25 381.63Q1163.77 380.98 1163.98 379.83L1163.98 379.83Q1164.03 379.60 1164.07 379.29Q1164.11 378.97 1164.08 378.58L1164.08 378.58Q1164.00 376.71 1163.15 375.84Q1162.29 374.97 1161.01 374.94L1161.01 374.94Q1160.65 374.92 1160.22 374.93Q1159.79 374.94 1159.44 374.94Q1159.09 374.94 1158.96 374.94L1158.96 374.94Q1158.96 374.92 1158.90 374.64Q1158.83 374.37 1158.77 374.09Q1158.70 373.80 1158.70 373.80ZM1155.14 373.80L1159.04 373.80L1159.04 392L1155.14 392L1155.14 373.80ZM1155.14 390.10L1155.22 390.10L1155.22 392L1153.14 392L1153.14 391.74Q1153.16 391.74 1153.31 391.74Q1153.45 391.74 1153.47 391.74L1153.47 391.74Q1154.15 391.74 1154.63 391.26Q1155.11 390.78 1155.14 390.10L1155.14 390.10ZM1155.22 373.80L1155.22 375.70L1155.14 375.70Q1155.11 375.02 1154.63 374.54Q1154.15 374.06 1153.47 374.06L1153.47 374.06Q1153.45 374.06 1153.31 374.06Q1153.16 374.06 1153.14 374.06L1153.14 374.06L1153.14 373.80L1155.22 373.80ZM1158.96 392L1158.96 390.10L1159.04 390.10Q1159.04 390.78 1159.53 391.26Q1160.03 391.74 1160.70 391.74L1160.70 391.74Q1160.75 391.74 1160.88 391.74Q1161.01 391.74 1161.01 391.74L1161.01 391.74L1161.01 392L1158.96 392ZM1193.80 373.44L1193.80 373.44Q1196.92 373.44 1199.22 374.59Q1201.52 375.75 1202.78 377.86Q1204.05 379.96 1204.05 382.90L1204.05 382.90Q1204.05 385.81 1202.78 387.93Q1201.52 390.05 1199.22 391.21Q1196.92 392.36 1193.80 392.36L1193.80 392.36Q1190.68 392.36 1188.38 391.21Q1186.08 390.05 1184.83 387.94Q1183.58 385.84 1183.58 382.90L1183.58 382.90Q1183.58 379.99 1184.83 377.87Q1186.08 375.75 1188.38 374.59Q1190.68 373.44 1193.80 373.44ZM1193.80 391.27L1193.80 391.27Q1195.65 391.27 1196.97 390.25Q1198.30 389.22 1199.03 387.35Q1199.75 385.47 1199.75 382.90L1199.75 382.90Q1199.75 380.33 1199.03 378.45Q1198.30 376.58 1196.97 375.56Q1195.65 374.53 1193.80 374.53L1193.80 374.53Q1191.98 374.53 1190.64 375.56Q1189.30 376.58 1188.58 378.45Q1187.85 380.33 1187.85 382.90L1187.85 382.90Q1187.85 385.47 1188.58 387.35Q1189.30 389.22 1190.64 390.25Q1191.98 391.27 1193.80 391.27ZM1227.26 387.50L1225.65 392.52L1217.05 373.96L1221.70 373.96L1227.26 387.50ZM1225.88 392.52L1225.65 392.52L1225.57 389.35L1232.18 373.88L1234.05 373.88L1227.16 389.11Q1227.11 389.27 1226.91 389.70Q1226.72 390.13 1226.48 390.67Q1226.25 391.22 1226.08 391.73Q1225.91 392.23 1225.88 392.52L1225.88 392.52ZM1233.24 375.70L1231.40 375.70Q1231.74 374.92 1231.32 374.49Q1230.90 374.06 1230.41 374.06L1230.41 374.06L1230.18 374.06L1230.18 373.80L1235.74 373.80L1235.74 374.06Q1235.74 374.06 1235.62 374.06Q1235.51 374.06 1235.51 374.06L1235.51 374.06Q1234.93 374.06 1234.30 374.44Q1233.66 374.81 1233.24 375.70L1233.24 375.70ZM1222.43 375.70L1222.43 375.70L1217.85 375.70Q1217.44 374.81 1216.80 374.44Q1216.16 374.06 1215.56 374.06L1215.56 374.06Q1215.56 374.06 1215.46 374.06Q1215.36 374.06 1215.36 374.06L1215.36 374.06L1215.36 373.80L1223.62 373.80L1223.62 374.06L1223.39 374.06Q1222.89 374.06 1222.52 374.49Q1222.14 374.92 1222.43 375.70ZM1249.03 373.80L1252.92 373.80L1252.92 392L1249.03 392L1249.03 373.80ZM1252.85 390.88L1259.79 390.88L1260.41 392L1252.85 392L1252.85 390.88ZM1252.85 382.48L1258.83 382.48L1258.83 383.58L1252.85 383.58L1252.85 382.48ZM1252.85 373.80L1260.10 373.80L1260.10 374.92L1252.85 374.92L1252.85 373.80ZM1261.43 386.67L1261.69 386.67L1260.49 392L1255.39 392L1256.33 390.88Q1257.63 390.88 1258.62 390.38Q1259.61 389.87 1260.31 388.92Q1261.01 387.97 1261.43 386.67L1261.43 386.67ZM1256.36 383.52L1258.83 383.52L1258.83 386.02L1258.57 386.02L1258.57 385.81Q1258.57 384.85 1257.94 384.23Q1257.32 383.60 1256.36 383.58L1256.36 383.58L1256.36 383.52ZM1258.57 380.04L1258.83 380.04L1258.83 382.54L1256.36 382.54L1256.36 382.48Q1257.32 382.46 1257.94 381.82Q1258.57 381.18 1258.57 380.22L1258.57 380.22L1258.57 380.04ZM1257.19 374.84L1260.10 374.84L1260.10 377.88L1259.84 377.88L1259.84 377.57Q1259.84 376.37 1259.13 375.65Q1258.41 374.92 1257.19 374.89L1257.19 374.89L1257.19 374.84ZM1260.10 373.33L1260.10 373.33L1260.10 374.09L1256.93 373.80Q1257.50 373.80 1258.14 373.72Q1258.78 373.64 1259.32 373.54Q1259.87 373.44 1260.10 373.33ZM1249.03 390.10L1249.10 390.10L1249.10 392L1247.02 392L1247.02 391.74Q1247.02 391.74 1247.19 391.74Q1247.36 391.74 1247.36 391.74L1247.36 391.74Q1248.04 391.74 1248.52 391.26Q1249.00 390.78 1249.03 390.10L1249.03 390.10ZM1249.10 373.80L1249.10 375.70L1249.03 375.70Q1249.00 375.02 1248.52 374.54Q1248.04 374.06 1247.36 374.06L1247.36 374.06Q1247.36 374.06 1247.19 374.06Q1247.02 374.06 1247.02 374.06L1247.02 374.06L1247.02 373.80L1249.10 373.80Z" fill="#b9c4ae"/>
<path d="M120 80 C120.88 87.8 122.2 89.12 130 90
    C122.2 90.88 120.88 92.2 120 100
    C119.12 92.2 117.8 90.88 110 90
    C117.8 89.12 119.12 87.8 120 80 Z"
    fill="#ffeeb0" opacity="0.8"/> <path d="M1390 68 C1391.056 77.36 1392.64 78.944 1402 80
    C1392.64 81.056 1391.056 82.64 1390 92
    C1388.944 82.64 1387.36 81.056 1378 80
    C1387.36 78.944 1388.944 77.36 1390 68 Z"
    fill="#ffeeb0" opacity="0.9"/> <path d="M1430 323 C1430.616 328.46 1431.54 329.384 1437 330
    C1431.54 330.616 1430.616 331.54 1430 337
    C1429.384 331.54 1428.46 330.616 1423 330
    C1428.46 329.384 1429.384 328.46 1430 323 Z"
    fill="#ffeeb0" opacity="0.7"/>
<path d="M680 62 C680.704 68.24 681.76 69.296 688 70
    C681.76 70.704 680.704 71.76 680 78
    C679.296 71.76 678.24 70.704 672 70
    C678.24 69.296 679.296 68.24 680 62 Z"
    fill="#ffeeb0" opacity="0.8"/> <path d="M1180 114 C1180.528 118.68 1181.32 119.472 1186 120
    C1181.32 120.528 1180.528 121.32 1180 126
    C1179.472 121.32 1178.68 120.528 1174 120
    C1178.68 119.472 1179.472 118.68 1180 114 Z"
    fill="#ffeeb0" opacity="0.7"/> <path d="M210 393 C210.616 398.46 211.54 399.384 217 400
    C211.54 400.616 210.616 401.54 210 407
    C209.384 401.54 208.46 400.616 203 400
    C208.46 399.384 209.384 398.46 210 393 Z"
    fill="#ffeeb0" opacity="0.6"/>
</svg>