<svg xmlns="http://www.w3.org/2000/svg" viewBox="0 0 512 512">
<defs>
  <radialGradient id="gBg" cx="50%" cy="38%" r="75%">
    <stop offset="0%" stop-color="#1a3423"/>
    <stop offset="60%" stop-color="#0f1f14"/>
    <stop offset="100%" stop-color="#080f0a"/>
  </radialGradient>
  <linearGradient id="gFoil" x1="0" y1="0" x2="0" y2="1">
    <stop offset="0%" stop-color="#ffeeb0"/>
    <stop offset="45%" stop-color="#f0c05a"/>
    <stop offset="100%" stop-color="#b97b16"/>
  </linearGradient>
  <linearGradient id="gFoilDeep" x1="0" y1="0" x2="0" y2="1">
    <stop offset="0%" stop-color="#ffe9a8"/>
    <stop offset="55%" stop-color="#e9a93c"/>
    <stop offset="100%" stop-color="#a86d12"/>
  </linearGradient>
  <linearGradient id="gRing" x1="0" y1="0" x2="0" y2="1">
    <stop offset="0%" stop-color="#f7d98a"/>
    <stop offset="100%" stop-color="#b9821f"/>
  </linearGradient></defs>
<rect width="512" height="512" rx="96" fill="url(#gBg)"/>

  
  <circle cx="256" cy="256" r="234" fill="none" stroke="url(#gRing)" stroke-width="6"/>
  <circle cx="256" cy="256" r="219" fill="none" stroke="url(#gRing)" stroke-width="1.6" opacity=".55"/>

  <!-- tree canopy -->
  <g fill="url(#gFoilDeep)">
    <circle cx="196" cy="206" r="55"/>
    <circle cx="316" cy="206" r="55"/>
    <circle cx="256" cy="164" r="76"/>
  </g>
  <path d="M215 118 A76 76 0 0 1 300 130" fill="none" stroke="#fff4cf" stroke-width="7"
    stroke-linecap="round" opacity=".8"/>

  <!-- keep tower -->
  <g fill="url(#gFoil)" stroke="#0a130c" stroke-width="7" stroke-linejoin="round">
    <path d="
    M204 226 L204 196 L230 196 L230 226 Z
    M243 226 L243 196 L269 196 L269 226 Z
    M282 226 L282 196 L308 196 L308 226 Z"/>
    <path d="M212 240 L220 240 L292 240 L300 240 L304 392 L208 392 Z"/>
    <path d="M198 226 L314 226 L310 246 L202 246 Z"/>
    <path d="M198 392 L314 392 L322 410 L190 410 Z"/>
  </g>
  <!-- gate & window -->
  <path d="M238 410 L238 344 A18 18 0 0 1 274 344 L274 410 Z" fill="#0a130c"/>
  <path d="M249 296 L249 270 A7 7 0 0 1 263 270 L263 296 Z" fill="#0a130c"/>
  <!-- stone joints -->
  <g stroke="#0a130c" stroke-width="3" opacity=".5">
    <line x1="222" y1="270" x2="246" y2="270"/><line x1="268" y1="278" x2="292" y2="278"/>
    <line x1="224" y1="312" x2="248" y2="312"/><line x1="266" y1="318" x2="290" y2="318"/>
  </g>

  <!-- ground -->
  <path d="M150 410 Q 256 434 362 410" fill="none" stroke="url(#gRing)" stroke-width="5"
    stroke-linecap="round" opacity=".75"/>

  <path d="M146 124 C147.056 133.36 148.64 134.944 158 136
    C148.64 137.056 147.056 138.64 146 148
    C144.944 138.64 143.36 137.056 134 136
    C143.36 134.944 144.944 133.36 146 124 Z"
    fill="#ffeeb0" opacity="1"/> <path d="M372 104 C372.704 110.24 373.76 111.296 380 112
    C373.76 112.704 372.704 113.76 372 120
    C371.296 113.76 370.24 112.704 364 112
    C370.24 111.296 371.296 110.24 372 104 Z"
    fill="#ffeeb0" opacity="0.9"/> <path d="M392 290 C392.528 294.68 393.32 295.472 398 296
    C393.32 296.528 392.528 297.32 392 302
    C391.472 297.32 390.68 296.528 386 296
    C390.68 295.472 391.472 294.68 392 290 Z"
    fill="#ffeeb0" opacity="0.7"/> <path d="M118 295 C118.44 298.9 119.1 299.56 123 300
    C119.1 300.44 118.44 301.1 118 305
    C117.56 301.1 116.9 300.44 113 300
    C116.9 299.56 117.56 298.9 118 295 Z"
    fill="#ffeeb0" opacity="0.6"/>
</svg>