<svg xmlns="http://www.w3.org/2000/svg" viewBox="0 0 1200 900">
<defs>
  <radialGradient id="gBg" cx="50%" cy="38%" r="75%">
    <stop offset="0%" stop-color="#1a3423"/>
    <stop offset="60%" stop-color="#0f1f14"/>
    <stop offset="100%" stop-color="#080f0a"/>
  </radialGradient>
  <linearGradient id="gFoil" x1="0" y1="0" x2="0" y2="1">
    <stop offset="0%" stop-color="#ffeeb0"/>
    <stop offset="45%" stop-color="#f0c05a"/>
    <stop offset="100%" stop-color="#b97b16"/>
  </linearGradient>
  <linearGradient id="gFoilDeep" x1="0" y1="0" x2="0" y2="1">
    <stop offset="0%" stop-color="#ffe9a8"/>
    <stop offset="55%" stop-color="#e9a93c"/>
    <stop offset="100%" stop-color="#a86d12"/>
  </linearGradient>
  <linearGradient id="gRing" x1="0" y1="0" x2="0" y2="1">
    <stop offset="0%" stop-color="#f7d98a"/>
    <stop offset="100%" stop-color="#b9821f"/>
  </linearGradient></defs>
<rect width="1200" height="900" fill="url(#gBg)"/>
<g transform="translate(600 258) scale(.84) translate(-256 -256)">
  
  <circle cx="256" cy="256" r="234" fill="none" stroke="url(#gRing)" stroke-width="6"/>
  <circle cx="256" cy="256" r="219" fill="none" stroke="url(#gRing)" stroke-width="1.6" opacity=".55"/>

  <!-- grove canopy behind the keep: clustered lobes, wider than the tower -->
  <g fill="url(#gFoilDeep)" opacity=".92">
    <circle cx="186" cy="196" r="46"/>
    <circle cx="326" cy="196" r="46"/>
    <circle cx="212" cy="136" r="44"/>
    <circle cx="300" cy="136" r="44"/>
    <circle cx="256" cy="112" r="50"/>
    <circle cx="160" cy="238" r="30"/>
    <circle cx="352" cy="238" r="30"/>
  </g>

  <!-- keep tower, clearly in front -->
  <g fill="url(#gFoil)" stroke="#0a130c" stroke-width="7" stroke-linejoin="round">
    <path d="
    M208 182 L208 150 L234 150 L234 182 Z
    M243 182 L243 150 L269 150 L269 182 Z
    M278 182 L278 150 L304 150 L304 182 Z"/>
    <path d="M214 202 L298 202 L306 390 L206 390 Z"/>
    <path d="M198 182 L314 182 L310 204 L202 204 Z"/>
    <path d="M196 390 L316 390 L324 408 L188 408 Z"/>
  </g>
  <!-- gate & window -->
  <path d="M238 408 L238 340 A18 18 0 0 1 274 340 L274 408 Z" fill="#0a130c"/>
  <path d="M249 268 L249 240 A7 7 0 0 1 263 240 L263 268 Z" fill="#0a130c"/>
  <!-- stone joints -->
  <g stroke="#0a130c" stroke-width="3" opacity=".5">
    <line x1="222" y1="244" x2="244" y2="244"/><line x1="268" y1="252" x2="290" y2="252"/>
    <line x1="222" y1="300" x2="246" y2="300"/><line x1="266" y1="308" x2="290" y2="308"/>
    <line x1="230" y1="352" x2="250" y2="352"/><line x1="264" y1="358" x2="284" y2="358"/>
  </g>

  <!-- ground -->
  <path d="M148 408 Q 256 432 364 408" fill="none" stroke="url(#gRing)" stroke-width="5"
    stroke-linecap="round" opacity=".75"/>

  <path d="M136 96 C137.056 105.36 138.64 106.944 148 108
    C138.64 109.056 137.056 110.64 136 120
    C134.944 110.64 133.36 109.056 124 108
    C133.36 106.944 134.944 105.36 136 96 Z"
    fill="#ffeeb0" opacity="1"/> <path d="M380 84 C380.704 90.24 381.76 91.296 388 92
    C381.76 92.704 380.704 93.76 380 100
    C379.296 93.76 378.24 92.704 372 92
    C378.24 91.296 379.296 90.24 380 84 Z"
    fill="#ffeeb0" opacity="0.9"/> <path d="M398 290 C398.528 294.68 399.32 295.472 404 296
    C399.32 296.528 398.528 297.32 398 302
    C397.472 297.32 396.68 296.528 392 296
    C396.68 295.472 397.472 294.68 398 290 Z"
    fill="#ffeeb0" opacity="0.7"/> <path d="M114 295 C114.44 298.9 115.1 299.56 119 300
    C115.1 300.44 114.44 301.1 114 305
    C113.56 301.1 112.9 300.44 109 300
    C112.9 299.56 113.56 298.9 114 295 Z"
    fill="#ffeeb0" opacity="0.6"/></g>
<g>
  <linearGradient id="gWord" x1="0" y1="574.76" x2="0" y2="673.04" gradientUnits="userSpaceOnUse">
    <stop offset="0%" stop-color="#ffeeb0"/>
    <stop offset="55%" stop-color="#eeb448"/>
    <stop offset="100%" stop-color="#9c650f"/>
  </linearGradient>
  <path d="M213.37 670.77L179.35 580.56L206.44 580.56L224.58 625.66L213.37 670.77ZM245.37 577.78L246.51 577.78L249.66 591.77L217.91 656.79Q217.91 656.79 217.09 658.87Q216.27 660.94 215.45 664.09Q214.63 667.24 214.50 670.77L214.50 670.77L213.37 670.77L209.09 653.38L245.37 577.78ZM234.92 610.54L246.51 577.91L275.11 630.70L266.92 670.77L234.92 610.54ZM284.06 580.56L293.76 580.56L269.94 656.79Q269.94 656.79 269.31 658.99Q268.68 661.20 268.24 664.41Q267.80 667.62 268.18 670.77L268.18 670.77L266.92 670.77L262.01 658.30L284.06 580.56ZM291.11 588.87L281.66 588.87Q282.67 585.09 281.03 583.08Q279.39 581.06 276.87 581.06L276.87 581.06L275.74 581.06L275.74 579.80L303.21 579.80L303.21 581.06Q303.21 581.06 302.70 581.06Q302.20 581.06 302.20 581.06L302.20 581.06Q299.30 581.06 295.90 582.89Q292.50 584.71 291.11 588.87L291.11 588.87ZM209.84 588.87L209.84 588.87L182.50 588.87Q180.86 584.71 177.59 582.89Q174.31 581.06 171.41 581.06L171.41 581.06Q171.41 581.06 170.91 581.06Q170.40 581.06 170.40 581.06L170.40 581.06L170.40 579.80L215.64 579.80L215.64 581.06L214.50 581.06Q212.11 581.06 210.28 583.08Q208.46 585.09 209.84 588.87ZM329.29 579.80L355.12 579.80L355.12 668L329.29 668L329.29 579.80ZM329.29 658.80L329.67 658.80L329.67 668L319.59 668L319.59 666.74Q319.59 666.74 320.41 666.74Q321.23 666.74 321.23 666.74L321.23 666.74Q324.50 666.74 326.83 664.41Q329.16 662.08 329.29 658.80L329.29 658.80ZM329.67 579.80L329.67 589.00L329.29 589.00Q329.16 585.72 326.83 583.39Q324.50 581.06 321.23 581.06L321.23 581.06Q321.23 581.06 320.41 581.06Q319.59 581.06 319.59 581.06L319.59 581.06L319.59 579.80L329.67 579.80ZM354.74 668L354.74 658.80L355.12 658.80Q355.25 662.08 357.58 664.41Q359.91 666.74 363.18 666.74L363.18 666.74Q363.18 666.74 363.94 666.74Q364.69 666.74 364.82 666.74L364.82 666.74L364.82 668L354.74 668ZM355.12 589.00L354.74 589.00L354.74 579.80L364.82 579.80L364.82 581.06Q364.69 581.06 363.94 581.06Q363.18 581.06 363.18 581.06L363.18 581.06Q359.91 581.06 357.58 583.39Q355.25 585.72 355.12 589.00L355.12 589.00ZM399.60 579.80L425.43 579.80L425.43 668L399.60 668L399.60 579.80ZM425.05 661.57L458.19 661.57L463.23 668L425.05 668L425.05 661.57ZM467.13 638.77L468.39 638.77L463.61 668L436.39 668L440.93 661.57Q446.97 661.57 452.20 658.87Q457.43 656.16 461.34 651.05Q465.24 645.95 467.13 638.77L467.13 638.77ZM399.60 658.80L399.98 658.80L399.98 668L389.89 668L389.89 666.74Q389.89 666.74 390.71 666.74Q391.53 666.74 391.53 666.74L391.53 666.74Q394.81 666.74 397.14 664.41Q399.47 662.08 399.60 658.80L399.60 658.80ZM399.98 579.80L399.98 589.00L399.60 589.00Q399.47 585.72 397.14 583.39Q394.81 581.06 391.53 581.06L391.53 581.06Q391.53 581.06 390.71 581.06Q389.89 581.06 389.89 581.06L389.89 581.06L389.89 579.80L399.98 579.80ZM425.43 589.00L425.05 589.00L425.05 579.80L435.13 579.80L435.13 581.06Q435.00 581.06 434.25 581.06Q433.49 581.06 433.49 581.06L433.49 581.06Q430.22 581.06 427.88 583.39Q425.55 585.72 425.43 589.00L425.43 589.00ZM504.05 579.80L537.44 579.80Q553.19 579.80 564.47 585.03Q575.75 590.26 581.73 600.15Q587.72 610.04 587.72 623.90L587.72 623.90Q587.72 637.76 581.73 647.65Q575.75 657.54 564.47 662.77Q553.19 668 537.44 668L537.44 668L505.44 668L505.31 661.70Q511.36 661.70 516.15 661.70Q520.94 661.70 524.46 661.70Q527.99 661.70 530.32 661.70Q532.65 661.70 533.79 661.70Q534.92 661.70 534.92 661.70L534.92 661.70Q542.86 661.70 548.47 657.16Q554.07 652.63 557.03 644.19Q560.00 635.74 560.00 623.90L560.00 623.90Q560.00 612.06 557.03 603.61Q554.07 595.17 548.47 590.64Q542.86 586.10 534.92 586.10L534.92 586.10Q534.92 586.10 533.72 586.10Q532.53 586.10 530.07 586.10Q527.61 586.10 523.96 586.10Q520.31 586.10 515.33 586.10Q510.35 586.10 504.05 586.10L504.05 586.10L504.05 579.80ZM499.39 579.80L525.22 579.80L525.22 668L499.39 668L499.39 579.80ZM499.39 658.80L499.77 658.80L499.77 668L489.69 668L489.69 666.74Q489.69 666.74 490.51 666.74Q491.33 666.74 491.33 666.74L491.33 666.74Q494.60 666.74 496.93 664.41Q499.26 662.08 499.39 658.80L499.39 658.80ZM499.77 579.80L499.77 589.00L499.39 589.00Q499.39 585.72 497.00 583.39Q494.60 581.06 491.33 581.06L491.33 581.06Q491.33 581.06 490.57 581.06Q489.81 581.06 489.81 581.06L489.81 581.06L489.69 579.80L499.77 579.80ZM652.98 627.93L671.76 610.04L703.00 657.16Q706.03 661.83 709.31 664.22Q712.58 666.61 716.49 666.74L716.49 666.74L716.49 668L702.88 668Q701.49 668 697.71 667.87Q693.93 667.75 689.02 666.74Q684.11 665.73 679.13 663.09Q674.15 660.44 670.50 655.40L670.50 655.40Q669.49 654.01 667.85 651.56Q666.21 649.10 664.26 646.01Q662.31 642.93 660.29 639.78Q658.27 636.63 656.64 633.98Q655.00 631.33 653.99 629.63Q652.98 627.93 652.98 627.93L652.98 627.93ZM687.63 580.68L700.23 580.68L662.18 626.67L652.98 627.93L687.63 580.68ZM708.67 579.80L709.18 579.80L709.18 580.93L708.67 580.93Q704.52 580.93 700.93 582.63Q697.34 584.34 694.82 587.11L694.82 587.11L683.10 586.86Q684.61 584.71 683.66 582.82Q682.72 580.93 680.07 580.93L680.07 580.93L678.81 580.93L678.81 579.80L708.67 579.80ZM623.12 579.80L648.95 579.80L648.95 668L623.12 668L623.12 579.80ZM623.12 658.80L623.50 658.80L623.50 668L613.42 668L613.42 666.74Q613.67 666.74 614.30 666.74Q614.93 666.74 615.06 666.74L615.06 666.74Q618.33 666.74 620.66 664.41Q623.00 662.08 623.12 658.80L623.12 658.80ZM623.50 579.80L623.50 589.00L623.12 589.00Q623.00 585.72 620.66 583.39Q618.33 581.06 615.06 581.06L615.06 581.06Q614.93 581.06 614.30 581.06Q613.67 581.06 613.42 581.06L613.42 581.06L613.42 579.80L623.50 579.80ZM648.57 668L648.57 658.80L648.95 658.80Q649.08 662.08 651.41 664.41Q653.74 666.74 657.01 666.74L657.01 666.74Q657.27 666.74 657.90 666.74Q658.53 666.74 658.65 666.74L658.65 666.74L658.65 668L648.57 668ZM648.95 589.00L648.57 589.00L648.57 579.80L658.65 579.80L658.65 581.06Q658.53 581.06 657.90 581.06Q657.27 581.06 657.01 581.06L657.01 581.06Q653.74 581.06 651.41 583.39Q649.08 585.72 648.95 589.00L648.95 589.00ZM744.33 579.80L770.16 579.80L770.16 668L744.33 668L744.33 579.80ZM769.78 661.57L802.92 661.57L807.96 668L769.78 668L769.78 661.57ZM769.78 621.38L798.76 621.38L798.76 627.68L769.78 627.68L769.78 621.38ZM769.78 579.80L805.44 579.80L805.44 586.23L769.78 586.23L769.78 579.80ZM811.87 638.77L813.13 638.77L808.34 668L781.13 668L785.66 661.57Q791.71 661.57 796.94 658.87Q802.17 656.16 806.07 651.05Q809.98 645.95 811.87 638.77L811.87 638.77ZM783.90 627.43L798.76 627.43L798.76 642.04L797.50 642.04L797.50 641.41Q797.50 635.49 793.66 631.65Q789.82 627.81 783.90 627.68L783.90 627.68L783.90 627.43ZM797.50 607.02L798.76 607.02L798.76 621.63L783.90 621.63L783.90 621.38Q789.82 621.25 793.73 617.35Q797.63 613.44 797.50 607.52L797.50 607.52L797.50 607.02ZM787.93 585.85L805.44 585.85L805.44 603.49L804.18 603.49L804.18 602.48Q804.18 594.92 799.90 590.57Q795.62 586.23 787.93 586.10L787.93 586.10L787.93 585.85ZM805.44 577.53L805.44 577.53L805.44 581.19L790.07 579.80Q792.84 579.80 795.93 579.42Q799.02 579.04 801.66 578.54Q804.31 578.04 805.44 577.53ZM744.33 658.80L744.71 658.80L744.71 668L734.63 668L734.63 666.74Q734.63 666.74 735.45 666.74Q736.27 666.74 736.27 666.74L736.27 666.74Q739.54 666.74 741.88 664.41Q744.21 662.08 744.33 658.80L744.33 658.80ZM744.71 579.80L744.71 589.00L744.33 589.00Q744.21 585.72 741.88 583.39Q739.54 581.06 736.27 581.06L736.27 581.06Q736.27 581.06 735.45 581.06Q734.63 581.06 734.63 581.06L734.63 581.06L734.63 579.80L744.71 579.80ZM846.01 579.80L871.85 579.80L871.85 668L846.01 668L846.01 579.80ZM871.47 661.57L904.61 661.57L909.64 668L871.47 668L871.47 661.57ZM871.47 621.38L900.45 621.38L900.45 627.68L871.47 627.68L871.47 621.38ZM871.47 579.80L907.13 579.80L907.13 586.23L871.47 586.23L871.47 579.80ZM913.55 638.77L914.81 638.77L910.02 668L882.81 668L887.34 661.57Q893.39 661.57 898.62 658.87Q903.85 656.16 907.75 651.05Q911.66 645.95 913.55 638.77L913.55 638.77ZM885.58 627.43L900.45 627.43L900.45 642.04L899.19 642.04L899.19 641.41Q899.19 635.49 895.34 631.65Q891.50 627.81 885.58 627.68L885.58 627.68L885.58 627.43ZM899.19 607.02L900.45 607.02L900.45 621.63L885.58 621.63L885.58 621.38Q891.50 621.25 895.41 617.35Q899.31 613.44 899.19 607.52L899.19 607.52L899.19 607.02ZM889.61 585.85L907.13 585.85L907.13 603.49L905.87 603.49L905.87 602.48Q905.87 594.92 901.58 590.57Q897.30 586.23 889.61 586.10L889.61 586.10L889.61 585.85ZM907.13 577.53L907.13 577.53L907.13 581.19L891.75 579.80Q894.52 579.80 897.61 579.42Q900.70 579.04 903.35 578.54Q905.99 578.04 907.13 577.53ZM846.01 658.80L846.39 658.80L846.39 668L836.31 668L836.31 666.74Q836.31 666.74 837.13 666.74Q837.95 666.74 837.95 666.74L837.95 666.74Q841.23 666.74 843.56 664.41Q845.89 662.08 846.01 658.80L846.01 658.80ZM846.39 579.80L846.39 589.00L846.01 589.00Q845.89 585.72 843.56 583.39Q841.23 581.06 837.95 581.06L837.95 581.06Q837.95 581.06 837.13 581.06Q836.31 581.06 836.31 581.06L836.31 581.06L836.31 579.80L846.39 579.80ZM972.52 579.80L972.52 579.80L986.63 579.80Q999.23 579.80 1006.67 583.14Q1014.10 586.48 1017.56 591.90Q1021.03 597.31 1021.41 603.87L1021.41 603.87Q1021.79 610.80 1019.33 616.47Q1016.87 622.14 1012.40 625.92Q1007.93 629.70 1002.25 631.27Q996.59 632.85 990.41 631.77Q984.24 630.70 978.44 626.55L978.44 626.55L978.44 625.29Q978.44 625.29 979.64 625.10Q980.84 624.91 982.73 624.15Q984.62 623.40 986.69 621.88Q988.77 620.37 990.66 617.54Q992.55 614.70 993.56 610.42L993.56 610.42Q994.07 608.53 994.25 606.51Q994.44 604.50 994.32 602.86L994.32 602.86Q994.07 595.17 989.97 590.64Q985.88 586.10 978.57 586.10L978.57 586.10L973.78 586.10Q973.78 586.10 973.46 584.52Q973.15 582.95 972.83 581.38Q972.52 579.80 972.52 579.80ZM948.33 579.80L974.16 579.80L974.16 668L948.33 668L948.33 579.80ZM948.33 658.80L948.71 658.80L948.71 668L938.63 668L938.63 666.74Q938.88 666.74 939.51 666.74Q940.14 666.74 940.26 666.74L940.26 666.74Q943.54 666.74 945.87 664.41Q948.20 662.08 948.33 658.80L948.33 658.80ZM948.71 579.80L948.71 589.00L948.33 589.00Q948.33 585.72 945.93 583.39Q943.54 581.06 940.26 581.06L940.26 581.06Q940.14 581.06 939.57 581.06Q939.00 581.06 938.75 581.06L938.75 581.06L938.63 579.80L948.71 579.80ZM973.78 668L973.78 658.80L974.16 658.80Q974.28 662.08 976.61 664.41Q978.95 666.74 982.22 666.74L982.22 666.74Q982.47 666.74 983.10 666.74Q983.73 666.74 983.86 666.74L983.86 666.74L983.86 668L973.78 668Z" fill="url(#gWord)"/></g>

  <g stroke="#d9a83f" stroke-width="2.4" fill="#d9a83f">
    <line x1="390" y1="728" x2="574" y2="728"/>
    <line x1="626" y1="728" x2="810" y2="728"/>
    <path d="M600 717 L611 728 L600 739 L589 728 Z"/>
    <circle cx="390" cy="728" r="3" stroke="none"/>
    <circle cx="810" cy="728" r="3" stroke="none"/>
  </g>
<path d="M290.41 779L297.88 779Q301.42 779 304.00 780.27Q306.58 781.55 307.98 783.90Q309.37 786.26 309.37 789.50L309.37 789.50Q309.37 792.74 307.98 795.10Q306.58 797.45 304.00 798.73Q301.42 800 297.88 800L297.88 800L290.74 800L290.71 798.74Q291.58 798.74 292.53 798.74Q293.47 798.74 294.37 798.74Q295.27 798.74 295.98 798.74Q296.68 798.74 297.10 798.74Q297.52 798.74 297.52 798.74L297.52 798.74Q299.68 798.74 301.24 797.62Q302.80 796.49 303.64 794.42Q304.48 792.35 304.48 789.50L304.48 789.50Q304.48 786.65 303.64 784.58Q302.80 782.51 301.24 781.38Q299.68 780.26 297.52 780.26L297.52 780.26Q297.52 780.26 297.09 780.26Q296.65 780.26 295.90 780.26Q295.15 780.26 294.22 780.26Q293.29 780.26 292.30 780.26Q291.31 780.26 290.41 780.26L290.41 780.26L290.41 779ZM289.30 779L293.80 779L293.80 800L289.30 800L289.30 779ZM289.30 797.81L289.39 797.81L289.39 800L286.99 800L286.99 799.70Q286.99 799.70 287.19 799.70Q287.38 799.70 287.38 799.70L287.38 799.70Q288.16 799.70 288.72 799.14Q289.27 798.59 289.30 797.81L289.30 797.81ZM289.39 779L289.39 781.19L289.30 781.19Q289.30 780.41 288.73 779.86Q288.16 779.30 287.38 779.30L287.38 779.30Q287.38 779.30 287.20 779.30Q287.02 779.30 287.02 779.30L287.02 779.30L286.99 779L289.39 779ZM326.74 779L331.24 779L331.24 800L326.74 800L326.74 779ZM331.15 798.71L339.16 798.71L339.88 800L331.15 800L331.15 798.71ZM331.15 789.02L338.05 789.02L338.05 790.28L331.15 790.28L331.15 789.02ZM331.15 779L339.52 779L339.52 780.29L331.15 780.29L331.15 779ZM341.05 793.85L341.35 793.85L339.97 800L334.09 800L335.17 798.71Q336.67 798.71 337.81 798.13Q338.95 797.54 339.76 796.45Q340.57 795.35 341.05 793.85L341.05 793.85ZM335.20 790.22L338.05 790.22L338.05 793.10L337.75 793.10L337.75 792.86Q337.75 791.75 337.03 791.03Q336.31 790.31 335.20 790.28L335.20 790.28L335.20 790.22ZM337.75 786.20L338.05 786.20L338.05 789.08L335.20 789.08L335.20 789.02Q336.31 788.99 337.03 788.25Q337.75 787.52 337.75 786.41L337.75 786.41L337.75 786.20ZM336.16 780.20L339.52 780.20L339.52 783.71L339.22 783.71L339.22 783.35Q339.22 781.97 338.40 781.13Q337.57 780.29 336.16 780.26L336.16 780.26L336.16 780.20ZM339.52 778.46L339.52 778.46L339.52 779.33L335.86 779Q336.52 779 337.26 778.91Q337.99 778.82 338.62 778.70Q339.25 778.58 339.52 778.46ZM326.74 797.81L326.83 797.81L326.83 800L324.43 800L324.43 799.70Q324.43 799.70 324.63 799.70Q324.82 799.70 324.82 799.70L324.82 799.70Q325.60 799.70 326.16 799.14Q326.71 798.59 326.74 797.81L326.74 797.81ZM326.83 779L326.83 781.19L326.74 781.19Q326.71 780.41 326.16 779.86Q325.60 779.30 324.82 779.30L324.82 779.30Q324.82 779.30 324.63 779.30Q324.43 779.30 324.43 779.30L324.43 779.30L324.43 779L326.83 779ZM358.30 779L362.80 779L362.80 800L358.30 800L358.30 779ZM362.71 789.02L369.61 789.02L369.61 790.28L362.71 790.28L362.71 789.02ZM362.71 779L371.08 779L371.08 780.29L362.71 780.29L362.71 779ZM366.76 790.22L369.61 790.22L369.61 793.10L369.31 793.10L369.31 792.86Q369.31 791.75 368.59 791.03Q367.87 790.31 366.76 790.28L366.76 790.28L366.76 790.22ZM369.31 786.20L369.61 786.20L369.61 789.08L366.76 789.08L366.76 789.02Q367.87 788.99 368.59 788.25Q369.31 787.52 369.31 786.41L369.31 786.41L369.31 786.20ZM367.84 780.20L371.08 780.20L371.08 783.53L370.78 783.53L370.78 783.23Q370.78 781.88 369.99 781.09Q369.19 780.29 367.84 780.29L367.84 780.29L367.84 780.20ZM371.08 778.46L371.08 778.46L371.08 779.33L367.42 779Q368.08 779 368.82 778.91Q369.55 778.82 370.18 778.70Q370.81 778.58 371.08 778.46ZM358.30 797.81L358.39 797.81L358.39 800L355.99 800L355.99 799.70Q355.99 799.70 356.19 799.70Q356.38 799.70 356.38 799.70L356.38 799.70Q357.16 799.70 357.72 799.14Q358.27 798.59 358.30 797.81L358.30 797.81ZM358.39 779L358.39 781.19L358.30 781.19Q358.27 780.41 357.72 779.86Q357.16 779.30 356.38 779.30L356.38 779.30Q356.38 779.30 356.19 779.30Q355.99 779.30 355.99 779.30L355.99 779.30L355.99 779L358.39 779ZM362.71 800L362.71 797.81L362.80 797.81Q362.83 798.59 363.39 799.14Q363.94 799.70 364.72 799.70L364.72 799.70Q364.72 799.70 364.90 799.70Q365.08 799.70 365.11 799.70L365.11 799.70L365.11 800L362.71 800ZM388.78 779L393.28 779L393.28 800L388.78 800L388.78 779ZM393.19 798.71L401.20 798.71L401.92 800L393.19 800L393.19 798.71ZM393.19 789.02L400.09 789.02L400.09 790.28L393.19 790.28L393.19 789.02ZM393.19 779L401.56 779L401.56 780.29L393.19 780.29L393.19 779ZM403.09 793.85L403.39 793.85L402.01 800L396.13 800L397.21 798.71Q398.71 798.71 399.85 798.13Q400.99 797.54 401.80 796.45Q402.61 795.35 403.09 793.85L403.09 793.85ZM397.24 790.22L400.09 790.22L400.09 793.10L399.79 793.10L399.79 792.86Q399.79 791.75 399.07 791.03Q398.35 790.31 397.24 790.28L397.24 790.28L397.24 790.22ZM399.79 786.20L400.09 786.20L400.09 789.08L397.24 789.08L397.24 789.02Q398.35 788.99 399.07 788.25Q399.79 787.52 399.79 786.41L399.79 786.41L399.79 786.20ZM398.20 780.20L401.56 780.20L401.56 783.71L401.26 783.71L401.26 783.35Q401.26 781.97 400.44 781.13Q399.61 780.29 398.20 780.26L398.20 780.26L398.20 780.20ZM401.56 778.46L401.56 778.46L401.56 779.33L397.90 779Q398.56 779 399.30 778.91Q400.03 778.82 400.66 778.70Q401.29 778.58 401.56 778.46ZM388.78 797.81L388.87 797.81L388.87 800L386.47 800L386.47 799.70Q386.47 799.70 386.67 799.70Q386.86 799.70 386.86 799.70L386.86 799.70Q387.64 799.70 388.20 799.14Q388.75 798.59 388.78 797.81L388.78 797.81ZM388.87 779L388.87 781.19L388.78 781.19Q388.75 780.41 388.20 779.86Q387.64 779.30 386.86 779.30L386.86 779.30Q386.86 779.30 386.67 779.30Q386.47 779.30 386.47 779.30L386.47 779.30L386.47 779L388.87 779ZM420.37 782.21L420.01 778.55L439.15 796.79L439.51 800.42L420.37 782.21ZM420.07 797.87L420.16 797.87L420.16 800L417.67 800L417.67 799.70Q417.67 799.70 417.94 799.70Q418.21 799.70 418.24 799.70L418.24 799.70Q418.99 799.70 419.53 799.16Q420.07 798.62 420.07 797.87L420.07 797.87ZM424.27 797.87L424.36 797.87Q424.36 798.62 424.90 799.16Q425.44 799.70 426.19 799.70L426.19 799.70Q426.22 799.70 426.49 799.70Q426.76 799.70 426.76 799.70L426.76 799.70L426.76 800L424.27 800L424.27 797.87ZM419.71 778.55L420.01 778.55L424.33 783.14L424.36 800L420.07 800L420.07 782.30Q420.07 780.62 419.89 779.59Q419.71 778.55 419.71 778.55L419.71 778.55ZM435.16 779L439.42 779L439.42 796.58Q439.42 797.69 439.51 798.58Q439.60 799.46 439.69 799.94Q439.78 800.42 439.78 800.42L439.78 800.42L439.51 800.42L435.16 795.56L435.16 779ZM439.33 779L441.82 779L441.82 779.30Q441.82 779.30 441.55 779.30Q441.28 779.30 441.28 779.30L441.28 779.30Q440.53 779.30 439.99 779.83Q439.45 780.35 439.42 781.13L439.42 781.13L439.33 781.13L439.33 779ZM432.73 779.30L432.73 779L435.22 779L435.22 781.13L435.16 781.13Q435.13 780.35 434.61 779.83Q434.08 779.30 433.30 779.30L433.30 779.30Q433.30 779.30 433.03 779.30Q432.76 779.30 432.73 779.30L432.73 779.30ZM463.63 778.58L463.63 778.58Q464.23 778.58 465.12 778.64Q466.00 778.70 466.95 778.80Q467.89 778.91 468.60 779.01Q469.30 779.12 469.57 779.24L469.57 779.24L469.21 783.29L468.91 783.29Q468.91 781.73 467.76 780.78Q466.60 779.84 464.68 779.84L464.68 779.84Q462.94 779.84 461.88 780.68Q460.81 781.52 460.75 782.72L460.75 782.72Q460.72 783.62 461.32 784.28Q461.92 784.94 462.85 785.51L462.85 785.51L468.58 789.23Q469.96 790.01 470.67 791.27Q471.37 792.53 471.28 794.21L471.28 794.21Q471.13 797.15 469.03 798.78Q466.93 800.42 463.33 800.42L463.33 800.42Q462.01 800.42 460.77 800.20Q459.52 799.97 458.56 799.57Q457.60 799.16 457.03 798.59L457.03 798.59Q456.79 797.93 456.82 797Q456.85 796.07 457.11 795.11Q457.36 794.15 457.75 793.52L457.75 793.52L458.02 793.52Q457.90 795.05 458.58 796.36Q459.25 797.66 460.56 798.42Q461.86 799.19 463.66 799.16L463.66 799.16Q465.64 799.13 466.72 798.15Q467.80 797.18 467.80 795.80L467.80 795.80Q467.80 794.87 467.25 794.12Q466.69 793.37 465.43 792.68L465.43 792.68L460.18 789.20Q458.59 788.30 457.87 786.89Q457.15 785.48 457.30 783.83L457.30 783.83Q457.45 782.27 458.23 781.09Q459.01 779.90 460.38 779.24Q461.74 778.58 463.63 778.58ZM466.00 778.88L469.60 778.88L469.54 779.51L466.00 779.51L466.00 778.88ZM488.83 779L493.33 779L493.33 800L488.83 800L488.83 779ZM493.24 798.71L501.25 798.71L501.97 800L493.24 800L493.24 798.71ZM493.24 789.02L500.14 789.02L500.14 790.28L493.24 790.28L493.24 789.02ZM493.24 779L501.61 779L501.61 780.29L493.24 780.29L493.24 779ZM503.14 793.85L503.44 793.85L502.06 800L496.18 800L497.26 798.71Q498.76 798.71 499.90 798.13Q501.04 797.54 501.85 796.45Q502.66 795.35 503.14 793.85L503.14 793.85ZM497.29 790.22L500.14 790.22L500.14 793.10L499.84 793.10L499.84 792.86Q499.84 791.75 499.12 791.03Q498.40 790.31 497.29 790.28L497.29 790.28L497.29 790.22ZM499.84 786.20L500.14 786.20L500.14 789.08L497.29 789.08L497.29 789.02Q498.40 788.99 499.12 788.25Q499.84 787.52 499.84 786.41L499.84 786.41L499.84 786.20ZM498.25 780.20L501.61 780.20L501.61 783.71L501.31 783.71L501.31 783.35Q501.31 781.97 500.49 781.13Q499.66 780.29 498.25 780.26L498.25 780.26L498.25 780.20ZM501.61 778.46L501.61 778.46L501.61 779.33L497.95 779Q498.61 779 499.35 778.91Q500.08 778.82 500.71 778.70Q501.34 778.58 501.61 778.46ZM488.83 797.81L488.92 797.81L488.92 800L486.52 800L486.52 799.70Q486.52 799.70 486.72 799.70Q486.91 799.70 486.91 799.70L486.91 799.70Q487.69 799.70 488.25 799.14Q488.80 798.59 488.83 797.81L488.83 797.81ZM488.92 779L488.92 781.19L488.83 781.19Q488.80 780.41 488.25 779.86Q487.69 779.30 486.91 779.30L486.91 779.30Q486.91 779.30 486.72 779.30Q486.52 779.30 486.52 779.30L486.52 779.30L486.52 779L488.92 779ZM550.18 778.58L550.18 778.58Q553.78 778.58 556.44 779.91Q559.09 781.25 560.55 783.68Q562.00 786.11 562.00 789.50L562.00 789.50Q562.00 792.86 560.55 795.30Q559.09 797.75 556.44 799.09Q553.78 800.42 550.18 800.42L550.18 800.42Q546.58 800.42 543.93 799.09Q541.27 797.75 539.83 795.32Q538.39 792.89 538.39 789.50L538.39 789.50Q538.39 786.14 539.83 783.70Q541.27 781.25 543.93 779.91Q546.58 778.58 550.18 778.58ZM550.18 799.16L550.18 799.16Q552.31 799.16 553.84 797.98Q555.38 796.79 556.21 794.63Q557.05 792.47 557.05 789.50L557.05 789.50Q557.05 786.53 556.21 784.37Q555.38 782.21 553.84 781.02Q552.31 779.84 550.18 779.84L550.18 779.84Q548.08 779.84 546.54 781.02Q545.00 782.21 544.15 784.37Q543.31 786.53 543.31 789.50L543.31 789.50Q543.31 792.47 544.15 794.63Q545.00 796.79 546.54 797.98Q548.08 799.16 550.18 799.16ZM579.47 779L583.97 779L583.97 800L579.47 800L579.47 779ZM583.88 789.02L590.77 789.02L590.77 790.28L583.88 790.28L583.88 789.02ZM583.88 779L592.25 779L592.25 780.29L583.88 780.29L583.88 779ZM587.92 790.22L590.77 790.22L590.77 793.10L590.48 793.10L590.48 792.86Q590.48 791.75 589.75 791.03Q589.03 790.31 587.92 790.28L587.92 790.28L587.92 790.22ZM590.48 786.20L590.77 786.20L590.77 789.08L587.92 789.08L587.92 789.02Q589.03 788.99 589.75 788.25Q590.48 787.52 590.48 786.41L590.48 786.41L590.48 786.20ZM589.00 780.20L592.25 780.20L592.25 783.53L591.94 783.53L591.94 783.23Q591.94 781.88 591.15 781.09Q590.36 780.29 589.00 780.29L589.00 780.29L589.00 780.20ZM592.25 778.46L592.25 778.46L592.25 779.33L588.59 779Q589.25 779 589.98 778.91Q590.72 778.82 591.35 778.70Q591.98 778.58 592.25 778.46ZM579.47 797.81L579.55 797.81L579.55 800L577.15 800L577.15 799.70Q577.15 799.70 577.35 799.70Q577.54 799.70 577.54 799.70L577.54 799.70Q578.32 799.70 578.88 799.14Q579.43 798.59 579.47 797.81L579.47 797.81ZM579.55 779L579.55 781.19L579.47 781.19Q579.43 780.41 578.88 779.86Q578.32 779.30 577.54 779.30L577.54 779.30Q577.54 779.30 577.35 779.30Q577.15 779.30 577.15 779.30L577.15 779.30L577.15 779L579.55 779ZM583.88 800L583.88 797.81L583.97 797.81Q584.00 798.59 584.55 799.14Q585.11 799.70 585.88 799.70L585.88 799.70Q585.88 799.70 586.06 799.70Q586.25 799.70 586.27 799.70L586.27 799.70L586.27 800L583.88 800ZM634.25 779.09L638.75 779.09L638.75 800L634.25 800L634.25 779.09ZM626.89 778.97L646.10 778.97L646.10 780.23L626.89 780.23L626.89 778.97ZM642.74 780.14L646.10 780.14L646.10 783.68L645.80 783.65L645.80 783.32Q645.80 781.91 644.97 781.09Q644.14 780.26 642.74 780.23L642.74 780.23L642.74 780.14ZM646.10 778.43L646.10 778.43L646.10 779.30L642.44 778.97Q643.10 778.97 643.83 778.88Q644.57 778.79 645.20 778.67Q645.83 778.55 646.10 778.43ZM634.25 797.81L634.34 797.81L634.34 800L631.94 800L631.94 799.70Q631.94 799.70 632.13 799.70Q632.33 799.70 632.33 799.70L632.33 799.70Q633.11 799.70 633.66 799.14Q634.22 798.59 634.25 797.81L634.25 797.81ZM638.65 800L638.65 797.81L638.75 797.81Q638.77 798.59 639.33 799.14Q639.88 799.70 640.67 799.70L640.67 799.70Q640.67 799.70 640.86 799.70Q641.06 799.70 641.06 799.70L641.06 799.70L641.06 800L638.65 800ZM626.89 780.14L630.23 780.14L630.23 780.23Q628.85 780.26 628.02 781.09Q627.20 781.91 627.20 783.32L627.20 783.32L627.20 783.65L626.89 783.68L626.89 780.14ZM626.89 779.30L626.89 778.43Q627.20 778.55 627.81 778.67Q628.43 778.79 629.18 778.88Q629.93 778.97 630.56 778.97L630.56 778.97L626.89 779.30ZM676.88 779L681.38 779L681.38 800L676.88 800L676.88 779ZM662.66 779L667.16 779L667.16 800L662.66 800L662.66 779ZM666.86 788.90L677.14 788.90L677.14 790.19L666.86 790.19L666.86 788.90ZM662.66 797.81L662.75 797.81L662.75 800L660.35 800L660.35 799.70Q660.35 799.70 660.54 799.70Q660.74 799.70 660.74 799.70L660.74 799.70Q661.51 799.70 662.07 799.14Q662.63 798.59 662.66 797.81L662.66 797.81ZM662.75 779L662.75 781.19L662.66 781.19Q662.63 780.41 662.07 779.86Q661.51 779.30 660.74 779.30L660.74 779.30Q660.74 779.30 660.54 779.30Q660.35 779.30 660.35 779.30L660.35 779.30L660.35 779L662.75 779ZM667.07 800L667.07 797.81L667.16 797.81Q667.19 798.59 667.74 799.14Q668.30 799.70 669.08 799.70L669.08 799.70Q669.08 799.70 669.25 799.70Q669.44 799.70 669.47 799.70L669.47 799.70L669.47 800L667.07 800ZM667.16 781.19L667.07 781.19L667.07 779L669.47 779L669.47 779.30Q669.44 779.30 669.25 779.30Q669.08 779.30 669.08 779.30L669.08 779.30Q668.30 779.30 667.74 779.86Q667.19 780.41 667.16 781.19L667.16 781.19ZM676.88 797.81L676.97 797.81L676.97 800L674.57 800L674.57 799.70Q674.60 799.70 674.78 799.70Q674.96 799.70 674.96 799.70L674.96 799.70Q675.74 799.70 676.31 799.14Q676.88 798.59 676.88 797.81L676.88 797.81ZM676.97 779L676.97 781.19L676.88 781.19Q676.88 780.41 676.31 779.86Q675.74 779.30 674.96 779.30L674.96 779.30Q674.96 779.30 674.78 779.30Q674.60 779.30 674.57 779.30L674.57 779.30L674.57 779L676.97 779ZM681.29 800L681.29 797.81L681.38 797.81Q681.41 798.59 681.96 799.14Q682.51 799.70 683.30 799.70L683.30 799.70Q683.30 799.70 683.49 799.70Q683.69 799.70 683.69 799.70L683.69 799.70L683.69 800L681.29 800ZM681.38 781.19L681.29 781.19L681.29 779L683.69 779L683.69 779.30Q683.69 779.30 683.49 779.30Q683.30 779.30 683.30 779.30L683.30 779.30Q682.51 779.30 681.96 779.86Q681.41 780.41 681.38 781.19L681.38 781.19ZM701.12 779L705.62 779L705.62 800L701.12 800L701.12 779ZM705.53 798.71L713.54 798.71L714.26 800L705.53 800L705.53 798.71ZM705.53 789.02L712.43 789.02L712.43 790.28L705.53 790.28L705.53 789.02ZM705.53 779L713.90 779L713.90 780.29L705.53 780.29L705.53 779ZM715.43 793.85L715.73 793.85L714.35 800L708.47 800L709.55 798.71Q711.05 798.71 712.19 798.13Q713.33 797.54 714.14 796.45Q714.95 795.35 715.43 793.85L715.43 793.85ZM709.58 790.22L712.43 790.22L712.43 793.10L712.13 793.10L712.13 792.86Q712.13 791.75 711.41 791.03Q710.69 790.31 709.58 790.28L709.58 790.28L709.58 790.22ZM712.13 786.20L712.43 786.20L712.43 789.08L709.58 789.08L709.58 789.02Q710.69 788.99 711.41 788.25Q712.13 787.52 712.13 786.41L712.13 786.41L712.13 786.20ZM710.54 780.20L713.90 780.20L713.90 783.71L713.60 783.71L713.60 783.35Q713.60 781.97 712.77 781.13Q711.95 780.29 710.54 780.26L710.54 780.26L710.54 780.20ZM713.90 778.46L713.90 778.46L713.90 779.33L710.24 779Q710.90 779 711.63 778.91Q712.37 778.82 713.00 778.70Q713.63 778.58 713.90 778.46ZM701.12 797.81L701.21 797.81L701.21 800L698.81 800L698.81 799.70Q698.81 799.70 699.00 799.70Q699.20 799.70 699.20 799.70L699.20 799.70Q699.98 799.70 700.53 799.14Q701.09 798.59 701.12 797.81L701.12 797.81ZM701.21 779L701.21 781.19L701.12 781.19Q701.09 780.41 700.53 779.86Q699.98 779.30 699.20 779.30L699.20 779.30Q699.20 779.30 699.00 779.30Q698.81 779.30 698.81 779.30L698.81 779.30L698.81 779L701.21 779ZM771.86 791.60L771.86 791.60L771.86 796.55Q771.13 797.45 769.71 798.35Q768.29 799.25 766.31 799.84Q764.33 800.42 761.90 800.42L761.90 800.42Q758.48 800.42 755.93 799.09Q753.38 797.75 751.97 795.29Q750.56 792.83 750.56 789.47L750.56 789.47Q750.56 786.11 751.95 783.68Q753.35 781.25 755.94 779.91Q758.54 778.58 762.08 778.58L762.08 778.58Q763.73 778.58 765.29 778.80Q766.85 779.03 768.17 779.39Q769.49 779.75 770.36 780.23L770.36 780.23L770.42 785.36L770.14 785.36Q769.58 783.32 768.50 782.11Q767.42 780.89 765.99 780.37Q764.57 779.84 762.98 779.84L762.98 779.84Q760.55 779.84 758.85 781.02Q757.16 782.21 756.30 784.40Q755.45 786.59 755.45 789.65L755.45 789.65Q755.45 792.53 756.24 794.67Q757.04 796.82 758.57 797.98Q760.10 799.13 762.29 799.16L762.29 799.16Q763.40 799.16 764.43 798.82Q765.47 798.47 766.25 797.81Q767.03 797.15 767.36 796.19L767.36 796.19L767.38 791.60Q767.38 790.25 765.86 790.25L765.86 790.25L765.38 790.25L765.38 789.95L773.81 789.95L773.81 790.25L773.36 790.25Q771.80 790.25 771.86 791.60ZM794.65 779L794.65 779L798.52 779Q799.88 779 801.16 779.30Q802.46 779.60 803.46 780.26Q804.47 780.92 805.06 782Q805.66 783.08 805.66 784.67L805.66 784.67Q805.66 785.93 805.14 787.17Q804.62 788.42 803.53 789.30Q802.46 790.19 800.75 790.37L800.75 790.37Q801.71 790.67 802.50 791.45Q803.29 792.23 803.80 793.01L803.80 793.01Q803.84 793.07 804.15 793.55Q804.47 794.03 804.93 794.74Q805.39 795.44 805.90 796.16Q806.41 796.88 806.84 797.42L806.84 797.42Q807.50 798.23 808.03 798.73Q808.58 799.22 809.17 799.45Q809.77 799.67 810.55 799.70L810.55 799.70L810.55 800L807.62 800Q806.00 800 804.67 799.72Q803.36 799.43 802.34 798.74Q801.31 798.05 800.56 796.88L800.56 796.88Q800.33 796.52 800.04 795.97Q799.75 795.41 799.46 794.78Q799.15 794.15 798.87 793.57Q798.59 792.98 798.38 792.50Q798.16 792.02 798.08 791.75L798.08 791.75Q797.68 790.79 797.16 790.31Q796.63 789.83 796.03 789.74L796.03 789.74L796.03 789.44Q796.13 789.44 796.39 789.44Q796.66 789.44 796.97 789.44L796.97 789.44Q797.77 789.44 798.54 789.11Q799.30 788.78 799.90 788.03Q800.50 787.28 800.75 785.96L800.75 785.96Q800.80 785.69 800.85 785.33Q800.89 784.97 800.87 784.52L800.87 784.52Q800.77 782.36 799.78 781.36Q798.79 780.35 797.33 780.32L797.33 780.32Q796.90 780.29 796.41 780.30Q795.91 780.32 795.51 780.32Q795.11 780.32 794.96 780.32L794.96 780.32Q794.96 780.29 794.88 779.98Q794.80 779.66 794.73 779.33Q794.65 779 794.65 779ZM790.54 779L795.04 779L795.04 800L790.54 800L790.54 779ZM790.54 797.81L790.63 797.81L790.63 800L788.24 800L788.24 799.70Q788.26 799.70 788.43 799.70Q788.60 799.70 788.63 799.70L788.63 799.70Q789.40 799.70 789.96 799.14Q790.51 798.59 790.54 797.81L790.54 797.81ZM790.63 779L790.63 781.19L790.54 781.19Q790.51 780.41 789.96 779.86Q789.40 779.30 788.63 779.30L788.63 779.30Q788.60 779.30 788.43 779.30Q788.26 779.30 788.24 779.30L788.24 779.30L788.24 779L790.63 779ZM794.96 800L794.96 797.81L795.04 797.81Q795.04 798.59 795.62 799.14Q796.18 799.70 796.97 799.70L796.97 799.70Q797.02 799.70 797.17 799.70Q797.33 799.70 797.33 799.70L797.33 799.70L797.33 800L794.96 800ZM835.15 778.58L835.15 778.58Q838.75 778.58 841.41 779.91Q844.06 781.25 845.52 783.68Q846.98 786.11 846.98 789.50L846.98 789.50Q846.98 792.86 845.52 795.30Q844.06 797.75 841.41 799.09Q838.75 800.42 835.15 800.42L835.15 800.42Q831.55 800.42 828.90 799.09Q826.25 797.75 824.80 795.32Q823.37 792.89 823.37 789.50L823.37 789.50Q823.37 786.14 824.80 783.70Q826.25 781.25 828.90 779.91Q831.55 778.58 835.15 778.58ZM835.15 799.16L835.15 799.16Q837.28 799.16 838.81 797.98Q840.35 796.79 841.18 794.63Q842.02 792.47 842.02 789.50L842.02 789.50Q842.02 786.53 841.18 784.37Q840.35 782.21 838.81 781.02Q837.28 779.84 835.15 779.84L835.15 779.84Q833.05 779.84 831.51 781.02Q829.97 782.21 829.13 784.37Q828.28 786.53 828.28 789.50L828.28 789.50Q828.28 792.47 829.13 794.63Q829.97 796.79 831.51 797.98Q833.05 799.16 835.15 799.16ZM873.76 794.81L871.90 800.60L861.98 779.18L867.35 779.18L873.76 794.81ZM872.17 800.60L871.90 800.60L871.82 796.94L879.44 779.09L881.60 779.09L873.64 796.67Q873.59 796.85 873.36 797.35Q873.13 797.84 872.87 798.47Q872.60 799.10 872.40 799.68Q872.21 800.27 872.17 800.60L872.17 800.60ZM880.66 781.19L878.53 781.19Q878.92 780.29 878.45 779.79Q877.97 779.30 877.39 779.30L877.39 779.30L877.13 779.30L877.13 779L883.54 779L883.54 779.30Q883.54 779.30 883.41 779.30Q883.27 779.30 883.27 779.30L883.27 779.30Q882.62 779.30 881.88 779.74Q881.14 780.17 880.66 781.19L880.66 781.19ZM868.19 781.19L868.19 781.19L862.90 781.19Q862.42 780.17 861.69 779.74Q860.96 779.30 860.26 779.30L860.26 779.30Q860.26 779.30 860.14 779.30Q860.02 779.30 860.02 779.30L860.02 779.30L860.02 779L869.57 779L869.57 779.30L869.29 779.30Q868.73 779.30 868.29 779.79Q867.86 780.29 868.19 781.19ZM898.88 779L903.38 779L903.38 800L898.88 800L898.88 779ZM903.29 798.71L911.30 798.71L912.02 800L903.29 800L903.29 798.71ZM903.29 789.02L910.19 789.02L910.19 790.28L903.29 790.28L903.29 789.02ZM903.29 779L911.66 779L911.66 780.29L903.29 780.29L903.29 779ZM913.19 793.85L913.49 793.85L912.11 800L906.23 800L907.31 798.71Q908.81 798.71 909.95 798.13Q911.09 797.54 911.90 796.45Q912.71 795.35 913.19 793.85L913.19 793.85ZM907.34 790.22L910.19 790.22L910.19 793.10L909.89 793.10L909.89 792.86Q909.89 791.75 909.17 791.03Q908.45 790.31 907.34 790.28L907.34 790.28L907.34 790.22ZM909.89 786.20L910.19 786.20L910.19 789.08L907.34 789.08L907.34 789.02Q908.45 788.99 909.17 788.25Q909.89 787.52 909.89 786.41L909.89 786.41L909.89 786.20ZM908.30 780.20L911.66 780.20L911.66 783.71L911.36 783.71L911.36 783.35Q911.36 781.97 910.53 781.13Q909.71 780.29 908.30 780.26L908.30 780.26L908.30 780.20ZM911.66 778.46L911.66 778.46L911.66 779.33L908.00 779Q908.66 779 909.39 778.91Q910.13 778.82 910.76 778.70Q911.39 778.58 911.66 778.46ZM898.88 797.81L898.97 797.81L898.97 800L896.57 800L896.57 799.70Q896.57 799.70 896.76 799.70Q896.96 799.70 896.96 799.70L896.96 799.70Q897.74 799.70 898.29 799.14Q898.85 798.59 898.88 797.81L898.88 797.81ZM898.97 779L898.97 781.19L898.88 781.19Q898.85 780.41 898.29 779.86Q897.74 779.30 896.96 779.30L896.96 779.30Q896.96 779.30 896.76 779.30Q896.57 779.30 896.57 779.30L896.57 779.30L896.57 779L898.97 779Z" fill="#b9c4ae"/>
</svg>