<svg xmlns="http://www.w3.org/2000/svg" viewBox="0 0 1600 540">
<defs>
  <radialGradient id="gBg" cx="50%" cy="38%" r="75%">
    <stop offset="0%" stop-color="#1a3423"/>
    <stop offset="60%" stop-color="#0f1f14"/>
    <stop offset="100%" stop-color="#080f0a"/>
  </radialGradient>
  <linearGradient id="gFoil" x1="0" y1="0" x2="0" y2="1">
    <stop offset="0%" stop-color="#ffeeb0"/>
    <stop offset="45%" stop-color="#f0c05a"/>
    <stop offset="100%" stop-color="#b97b16"/>
  </linearGradient>
  <linearGradient id="gFoilDeep" x1="0" y1="0" x2="0" y2="1">
    <stop offset="0%" stop-color="#ffe9a8"/>
    <stop offset="55%" stop-color="#e9a93c"/>
    <stop offset="100%" stop-color="#a86d12"/>
  </linearGradient>
  <linearGradient id="gRing" x1="0" y1="0" x2="0" y2="1">
    <stop offset="0%" stop-color="#f7d98a"/>
    <stop offset="100%" stop-color="#b9821f"/>
  </linearGradient></defs>
<rect width="1600" height="540" fill="url(#gBg)"/>
<g transform="translate(290 270) scale(.82) translate(-256 -256)">
  
  <circle cx="256" cy="256" r="234" fill="none" stroke="url(#gRing)" stroke-width="6"/>
  <circle cx="256" cy="256" r="219" fill="none" stroke="url(#gRing)" stroke-width="1.6" opacity=".55"/>

  <!-- grove canopy behind the keep: clustered lobes, wider than the tower -->
  <g fill="url(#gFoilDeep)" opacity=".92">
    <circle cx="186" cy="196" r="46"/>
    <circle cx="326" cy="196" r="46"/>
    <circle cx="212" cy="136" r="44"/>
    <circle cx="300" cy="136" r="44"/>
    <circle cx="256" cy="112" r="50"/>
    <circle cx="160" cy="238" r="30"/>
    <circle cx="352" cy="238" r="30"/>
  </g>

  <!-- keep tower, clearly in front -->
  <g fill="url(#gFoil)" stroke="#0a130c" stroke-width="7" stroke-linejoin="round">
    <path d="
    M208 182 L208 150 L234 150 L234 182 Z
    M243 182 L243 150 L269 150 L269 182 Z
    M278 182 L278 150 L304 150 L304 182 Z"/>
    <path d="M214 202 L298 202 L306 390 L206 390 Z"/>
    <path d="M198 182 L314 182 L310 204 L202 204 Z"/>
    <path d="M196 390 L316 390 L324 408 L188 408 Z"/>
  </g>
  <!-- gate & window -->
  <path d="M238 408 L238 340 A18 18 0 0 1 274 340 L274 408 Z" fill="#0a130c"/>
  <path d="M249 268 L249 240 A7 7 0 0 1 263 240 L263 268 Z" fill="#0a130c"/>
  <!-- stone joints -->
  <g stroke="#0a130c" stroke-width="3" opacity=".5">
    <line x1="222" y1="244" x2="244" y2="244"/><line x1="268" y1="252" x2="290" y2="252"/>
    <line x1="222" y1="300" x2="246" y2="300"/><line x1="266" y1="308" x2="290" y2="308"/>
    <line x1="230" y1="352" x2="250" y2="352"/><line x1="264" y1="358" x2="284" y2="358"/>
  </g>

  <!-- ground -->
  <path d="M148 408 Q 256 432 364 408" fill="none" stroke="url(#gRing)" stroke-width="5"
    stroke-linecap="round" opacity=".75"/>

  <path d="M136 96 C137.056 105.36 138.64 106.944 148 108
    C138.64 109.056 137.056 110.64 136 120
    C134.944 110.64 133.36 109.056 124 108
    C133.36 106.944 134.944 105.36 136 96 Z"
    fill="#ffeeb0" opacity="1"/> <path d="M380 84 C380.704 90.24 381.76 91.296 388 92
    C381.76 92.704 380.704 93.76 380 100
    C379.296 93.76 378.24 92.704 372 92
    C378.24 91.296 379.296 90.24 380 84 Z"
    fill="#ffeeb0" opacity="0.9"/> <path d="M398 290 C398.528 294.68 399.32 295.472 404 296
    C399.32 296.528 398.528 297.32 398 302
    C397.472 297.32 396.68 296.528 392 296
    C396.68 295.472 397.472 294.68 398 290 Z"
    fill="#ffeeb0" opacity="0.7"/> <path d="M114 295 C114.44 298.9 115.1 299.56 119 300
    C115.1 300.44 114.44 301.1 114 305
    C113.56 301.1 112.9 300.44 109 300
    C112.9 299.56 113.56 298.9 114 295 Z"
    fill="#ffeeb0" opacity="0.6"/></g>
<g>
  <linearGradient id="gWord" x1="0" y1="207.68" x2="0" y2="299.72" gradientUnits="userSpaceOnUse">
    <stop offset="0%" stop-color="#ffeeb0"/>
    <stop offset="55%" stop-color="#eeb448"/>
    <stop offset="100%" stop-color="#9c650f"/>
  </linearGradient>
  <path d="M647.92 297.60L616.06 213.11L641.43 213.11L658.42 255.35L647.92 297.60ZM677.89 210.51L678.95 210.51L681.90 223.61L652.16 284.50Q652.16 284.50 651.40 286.44Q650.63 288.39 649.86 291.34Q649.10 294.29 648.98 297.60L648.98 297.60L647.92 297.60L643.90 281.31L677.89 210.51ZM668.09 241.19L678.95 210.63L705.74 260.07L698.07 297.60L668.09 241.19ZM714.12 213.11L723.20 213.11L700.90 284.50Q700.90 284.50 700.31 286.56Q699.72 288.63 699.31 291.64Q698.89 294.65 699.25 297.60L699.25 297.60L698.07 297.60L693.46 285.91L714.12 213.11ZM720.72 220.90L711.87 220.90Q712.82 217.36 711.28 215.47Q709.75 213.58 707.39 213.58L707.39 213.58L706.33 213.58L706.33 212.40L732.05 212.40L732.05 213.58Q732.05 213.58 731.58 213.58Q731.11 213.58 731.11 213.58L731.11 213.58Q728.39 213.58 725.21 215.29Q722.02 217.00 720.72 220.90L720.72 220.90ZM644.61 220.90L644.61 220.90L619.01 220.90Q617.47 217.00 614.40 215.29Q611.34 213.58 608.62 213.58L608.62 213.58Q608.62 213.58 608.15 213.58Q607.68 213.58 607.68 213.58L607.68 213.58L607.68 212.40L650.04 212.40L650.04 213.58L648.98 213.58Q646.74 213.58 645.03 215.47Q643.31 217.36 644.61 220.90ZM756.48 212.40L780.67 212.40L780.67 295L756.48 295L756.48 212.40ZM756.48 286.39L756.83 286.39L756.83 295L747.39 295L747.39 293.82Q747.39 293.82 748.16 293.82Q748.92 293.82 748.92 293.82L748.92 293.82Q751.99 293.82 754.18 291.64Q756.36 289.45 756.48 286.39L756.48 286.39ZM756.83 212.40L756.83 221.01L756.48 221.01Q756.36 217.95 754.18 215.76Q751.99 213.58 748.92 213.58L748.92 213.58Q748.92 213.58 748.16 213.58Q747.39 213.58 747.39 213.58L747.39 213.58L747.39 212.40L756.83 212.40ZM780.31 295L780.31 286.39L780.67 286.39Q780.78 289.45 782.97 291.64Q785.15 293.82 788.22 293.82L788.22 293.82Q788.22 293.82 788.93 293.82Q789.63 293.82 789.75 293.82L789.75 293.82L789.75 295L780.31 295ZM780.67 221.01L780.31 221.01L780.31 212.40L789.75 212.40L789.75 213.58Q789.63 213.58 788.93 213.58Q788.22 213.58 788.22 213.58L788.22 213.58Q785.15 213.58 782.97 215.76Q780.78 217.95 780.67 221.01L780.67 221.01ZM822.32 212.40L846.51 212.40L846.51 295L822.32 295L822.32 212.40ZM846.16 288.98L877.19 288.98L881.91 295L846.16 295L846.16 288.98ZM885.57 267.62L886.75 267.62L882.26 295L856.78 295L861.02 288.98Q866.69 288.98 871.59 286.44Q876.48 283.91 880.14 279.13Q883.80 274.35 885.57 267.62L885.57 267.62ZM822.32 286.39L822.67 286.39L822.67 295L813.23 295L813.23 293.82Q813.23 293.82 814.00 293.82Q814.77 293.82 814.77 293.82L814.77 293.82Q817.84 293.82 820.02 291.64Q822.20 289.45 822.32 286.39L822.32 286.39ZM822.67 212.40L822.67 221.01L822.32 221.01Q822.20 217.95 820.02 215.76Q817.84 213.58 814.77 213.58L814.77 213.58Q814.77 213.58 814.00 213.58Q813.23 213.58 813.23 213.58L813.23 213.58L813.23 212.40L822.67 212.40ZM846.51 221.01L846.16 221.01L846.16 212.40L855.60 212.40L855.60 213.58Q855.48 213.58 854.77 213.58Q854.06 213.58 854.06 213.58L854.06 213.58Q850.99 213.58 848.81 215.76Q846.63 217.95 846.51 221.01L846.51 221.01ZM920.14 212.40L951.41 212.40Q966.16 212.40 976.72 217.30Q987.28 222.19 992.89 231.46Q998.50 240.72 998.50 253.70L998.50 253.70Q998.50 266.68 992.89 275.94Q987.28 285.21 976.72 290.10Q966.16 295 951.41 295L951.41 295L921.44 295L921.32 289.10Q926.99 289.10 931.47 289.10Q935.95 289.10 939.26 289.10Q942.56 289.10 944.75 289.10Q946.93 289.10 947.99 289.10Q949.05 289.10 949.05 289.10L949.05 289.10Q956.49 289.10 961.74 284.85Q966.99 280.60 969.76 272.70Q972.53 264.79 972.53 253.70L972.53 253.70Q972.53 242.61 969.76 234.70Q966.99 226.80 961.74 222.55Q956.49 218.30 949.05 218.30L949.05 218.30Q949.05 218.30 947.93 218.30Q946.81 218.30 944.51 218.30Q942.21 218.30 938.79 218.30Q935.37 218.30 930.70 218.30Q926.04 218.30 920.14 218.30L920.14 218.30L920.14 212.40ZM915.78 212.40L939.97 212.40L939.97 295L915.78 295L915.78 212.40ZM915.78 286.39L916.13 286.39L916.13 295L906.69 295L906.69 293.82Q906.69 293.82 907.46 293.82Q908.22 293.82 908.22 293.82L908.22 293.82Q911.29 293.82 913.48 291.64Q915.66 289.45 915.78 286.39L915.78 286.39ZM916.13 212.40L916.13 221.01L915.78 221.01Q915.78 217.95 913.53 215.76Q911.29 213.58 908.22 213.58L908.22 213.58Q908.22 213.58 907.52 213.58Q906.81 213.58 906.81 213.58L906.81 213.58L906.69 212.40L916.13 212.40ZM1059.62 257.48L1077.20 240.72L1106.46 284.85Q1109.30 289.22 1112.37 291.46Q1115.43 293.70 1119.09 293.82L1119.09 293.82L1119.09 295L1106.35 295Q1105.05 295 1101.51 294.88Q1097.97 294.76 1093.37 293.82Q1088.76 292.88 1084.10 290.40Q1079.44 287.92 1076.02 283.20L1076.02 283.20Q1075.08 281.90 1073.54 279.60Q1072.01 277.30 1070.18 274.41Q1068.35 271.52 1066.46 268.57Q1064.57 265.62 1063.04 263.14Q1061.51 260.66 1060.56 259.07Q1059.62 257.48 1059.62 257.48L1059.62 257.48ZM1092.07 213.23L1103.87 213.23L1068.23 256.30L1059.62 257.48L1092.07 213.23ZM1111.77 212.40L1112.25 212.40L1112.25 213.46L1111.77 213.46Q1107.88 213.46 1104.52 215.06Q1101.15 216.65 1098.79 219.24L1098.79 219.24L1087.82 219.01Q1089.24 217.00 1088.35 215.23Q1087.47 213.46 1084.99 213.46L1084.99 213.46L1083.81 213.46L1083.81 212.40L1111.77 212.40ZM1031.65 212.40L1055.84 212.40L1055.84 295L1031.65 295L1031.65 212.40ZM1031.65 286.39L1032.01 286.39L1032.01 295L1022.57 295L1022.57 293.82Q1022.80 293.82 1023.39 293.82Q1023.98 293.82 1024.10 293.82L1024.10 293.82Q1027.17 293.82 1029.35 291.64Q1031.53 289.45 1031.65 286.39L1031.65 286.39ZM1032.01 212.40L1032.01 221.01L1031.65 221.01Q1031.53 217.95 1029.35 215.76Q1027.17 213.58 1024.10 213.58L1024.10 213.58Q1023.98 213.58 1023.39 213.58Q1022.80 213.58 1022.57 213.58L1022.57 213.58L1022.57 212.40L1032.01 212.40ZM1055.49 295L1055.49 286.39L1055.84 286.39Q1055.96 289.45 1058.14 291.64Q1060.33 293.82 1063.39 293.82L1063.39 293.82Q1063.63 293.82 1064.22 293.82Q1064.81 293.82 1064.93 293.82L1064.93 293.82L1064.93 295L1055.49 295ZM1055.84 221.01L1055.49 221.01L1055.49 212.40L1064.93 212.40L1064.93 213.58Q1064.81 213.58 1064.22 213.58Q1063.63 213.58 1063.39 213.58L1063.39 213.58Q1060.33 213.58 1058.14 215.76Q1055.96 217.95 1055.84 221.01L1055.84 221.01ZM1145.17 212.40L1169.36 212.40L1169.36 295L1145.17 295L1145.17 212.40ZM1169.00 288.98L1200.04 288.98L1204.76 295L1169.00 295L1169.00 288.98ZM1169.00 251.34L1196.14 251.34L1196.14 257.24L1169.00 257.24L1169.00 251.34ZM1169.00 212.40L1202.40 212.40L1202.40 218.42L1169.00 218.42L1169.00 212.40ZM1208.42 267.62L1209.60 267.62L1205.11 295L1179.63 295L1183.87 288.98Q1189.54 288.98 1194.43 286.44Q1199.33 283.91 1202.99 279.13Q1206.65 274.35 1208.42 267.62L1208.42 267.62ZM1182.22 257.00L1196.14 257.00L1196.14 270.69L1194.96 270.69L1194.96 270.10Q1194.96 264.56 1191.37 260.96Q1187.77 257.36 1182.22 257.24L1182.22 257.24L1182.22 257.00ZM1194.96 237.89L1196.14 237.89L1196.14 251.58L1182.22 251.58L1182.22 251.34Q1187.77 251.22 1191.42 247.56Q1195.08 243.91 1194.96 238.36L1194.96 238.36L1194.96 237.89ZM1186.00 218.06L1202.40 218.06L1202.40 234.58L1201.22 234.58L1201.22 233.64Q1201.22 226.56 1197.21 222.49Q1193.19 218.42 1186.00 218.30L1186.00 218.30L1186.00 218.06ZM1202.40 210.28L1202.40 210.28L1202.40 213.70L1188.00 212.40Q1190.60 212.40 1193.49 212.05Q1196.38 211.69 1198.86 211.22Q1201.34 210.75 1202.40 210.28ZM1145.17 286.39L1145.52 286.39L1145.52 295L1136.08 295L1136.08 293.82Q1136.08 293.82 1136.85 293.82Q1137.62 293.82 1137.62 293.82L1137.62 293.82Q1140.68 293.82 1142.87 291.64Q1145.05 289.45 1145.17 286.39L1145.17 286.39ZM1145.52 212.40L1145.52 221.01L1145.17 221.01Q1145.05 217.95 1142.87 215.76Q1140.68 213.58 1137.62 213.58L1137.62 213.58Q1137.62 213.58 1136.85 213.58Q1136.08 213.58 1136.08 213.58L1136.08 213.58L1136.08 212.40L1145.52 212.40ZM1240.39 212.40L1264.58 212.40L1264.58 295L1240.39 295L1240.39 212.40ZM1264.23 288.98L1295.26 288.98L1299.98 295L1264.23 295L1264.23 288.98ZM1264.23 251.34L1291.37 251.34L1291.37 257.24L1264.23 257.24L1264.23 251.34ZM1264.23 212.40L1297.62 212.40L1297.62 218.42L1264.23 218.42L1264.23 212.40ZM1303.64 267.62L1304.82 267.62L1300.34 295L1274.85 295L1279.10 288.98Q1284.76 288.98 1289.66 286.44Q1294.56 283.91 1298.21 279.13Q1301.87 274.35 1303.64 267.62L1303.64 267.62ZM1277.45 257.00L1291.37 257.00L1291.37 270.69L1290.19 270.69L1290.19 270.10Q1290.19 264.56 1286.59 260.96Q1282.99 257.36 1277.45 257.24L1277.45 257.24L1277.45 257.00ZM1290.19 237.89L1291.37 237.89L1291.37 251.58L1277.45 251.58L1277.45 251.34Q1282.99 251.22 1286.65 247.56Q1290.31 243.91 1290.19 238.36L1290.19 238.36L1290.19 237.89ZM1281.22 218.06L1297.62 218.06L1297.62 234.58L1296.44 234.58L1296.44 233.64Q1296.44 226.56 1292.43 222.49Q1288.42 218.42 1281.22 218.30L1281.22 218.30L1281.22 218.06ZM1297.62 210.28L1297.62 210.28L1297.62 213.70L1283.23 212.40Q1285.82 212.40 1288.72 212.05Q1291.61 211.69 1294.08 211.22Q1296.56 210.75 1297.62 210.28ZM1240.39 286.39L1240.75 286.39L1240.75 295L1231.31 295L1231.31 293.82Q1231.31 293.82 1232.08 293.82Q1232.84 293.82 1232.84 293.82L1232.84 293.82Q1235.91 293.82 1238.09 291.64Q1240.28 289.45 1240.39 286.39L1240.39 286.39ZM1240.75 212.40L1240.75 221.01L1240.39 221.01Q1240.28 217.95 1238.09 215.76Q1235.91 213.58 1232.84 213.58L1232.84 213.58Q1232.84 213.58 1232.08 213.58Q1231.31 213.58 1231.31 213.58L1231.31 213.58L1231.31 212.40L1240.75 212.40ZM1358.87 212.40L1358.87 212.40L1372.08 212.40Q1383.88 212.40 1390.84 215.53Q1397.81 218.65 1401.05 223.73Q1404.30 228.80 1404.65 234.94L1404.65 234.94Q1405.00 241.43 1402.70 246.74Q1400.40 252.05 1396.21 255.59Q1392.02 259.13 1386.71 260.60Q1381.40 262.08 1375.62 261.07Q1369.84 260.07 1364.41 256.18L1364.41 256.18L1364.41 255.00Q1364.41 255.00 1365.53 254.82Q1366.65 254.64 1368.42 253.94Q1370.19 253.23 1372.14 251.81Q1374.09 250.40 1375.86 247.74Q1377.63 245.09 1378.57 241.07L1378.57 241.07Q1379.04 239.30 1379.22 237.42Q1379.40 235.53 1379.28 233.99L1379.28 233.99Q1379.04 226.80 1375.21 222.55Q1371.38 218.30 1364.53 218.30L1364.53 218.30L1360.05 218.30Q1360.05 218.30 1359.75 216.82Q1359.46 215.35 1359.16 213.88Q1358.87 212.40 1358.87 212.40ZM1336.21 212.40L1360.40 212.40L1360.40 295L1336.21 295L1336.21 212.40ZM1336.21 286.39L1336.56 286.39L1336.56 295L1327.13 295L1327.13 293.82Q1327.36 293.82 1327.95 293.82Q1328.54 293.82 1328.66 293.82L1328.66 293.82Q1331.73 293.82 1333.91 291.64Q1336.09 289.45 1336.21 286.39L1336.21 286.39ZM1336.56 212.40L1336.56 221.01L1336.21 221.01Q1336.21 217.95 1333.97 215.76Q1331.73 213.58 1328.66 213.58L1328.66 213.58Q1328.54 213.58 1328.01 213.58Q1327.48 213.58 1327.24 213.58L1327.24 213.58L1327.13 212.40L1336.56 212.40ZM1360.05 295L1360.05 286.39L1360.40 286.39Q1360.52 289.45 1362.70 291.64Q1364.88 293.82 1367.95 293.82L1367.95 293.82Q1368.19 293.82 1368.78 293.82Q1369.37 293.82 1369.49 293.82L1369.49 293.82L1369.49 295L1360.05 295Z" fill="url(#gWord)"/></g>

  <g stroke="#d9a83f" stroke-width="2.4" fill="#d9a83f">
    <line x1="680" y1="352" x2="984" y2="352"/>
    <line x1="1036" y1="352" x2="1340" y2="352"/>
    <path d="M1010 341 L1021 352 L1010 363 L999 352 Z"/>
    <circle cx="680" cy="352" r="3" stroke="none"/>
    <circle cx="1340" cy="352" r="3" stroke="none"/>
  </g>
<path d="M731.37 403.10L738.10 403.10Q741.28 403.10 743.60 404.25Q745.93 405.39 747.18 407.51Q748.44 409.63 748.44 412.55L748.44 412.55Q748.44 415.47 747.18 417.59Q745.93 419.70 743.60 420.85Q741.28 422 738.10 422L738.10 422L731.67 422L731.64 420.87Q732.43 420.87 733.28 420.87Q734.13 420.87 734.94 420.87Q735.75 420.87 736.38 420.87Q737.02 420.87 737.39 420.87Q737.77 420.87 737.77 420.87L737.77 420.87Q739.72 420.87 741.12 419.85Q742.52 418.84 743.28 416.98Q744.04 415.12 744.04 412.55L744.04 412.55Q744.04 409.99 743.28 408.12Q742.52 406.26 741.12 405.25Q739.72 404.23 737.77 404.23L737.77 404.23Q737.77 404.23 737.38 404.23Q736.99 404.23 736.31 404.23Q735.64 404.23 734.80 404.23Q733.97 404.23 733.07 404.23Q732.18 404.23 731.37 404.23L731.37 404.23L731.37 403.10ZM730.37 403.10L734.42 403.10L734.42 422L730.37 422L730.37 403.10ZM730.37 420.03L730.46 420.03L730.46 422L728.30 422L728.30 421.73Q728.30 421.73 728.47 421.73Q728.65 421.73 728.65 421.73L728.65 421.73Q729.35 421.73 729.85 421.23Q730.35 420.73 730.37 420.03L730.37 420.03ZM730.46 403.10L730.46 405.07L730.37 405.07Q730.37 404.37 729.86 403.87Q729.35 403.37 728.65 403.37L728.65 403.37Q728.65 403.37 728.48 403.37Q728.32 403.37 728.32 403.37L728.32 403.37L728.30 403.10L730.46 403.10ZM764.07 403.10L768.12 403.10L768.12 422L764.07 422L764.07 403.10ZM768.04 420.84L775.25 420.84L775.90 422L768.04 422L768.04 420.84ZM768.04 412.12L774.25 412.12L774.25 413.25L768.04 413.25L768.04 412.12ZM768.04 403.10L775.57 403.10L775.57 404.26L768.04 404.26L768.04 403.10ZM776.95 416.46L777.22 416.46L775.98 422L770.69 422L771.66 420.84Q773.01 420.84 774.03 420.31Q775.06 419.79 775.79 418.80Q776.52 417.81 776.95 416.46L776.95 416.46ZM771.68 413.20L774.25 413.20L774.25 415.79L773.98 415.79L773.98 415.57Q773.98 414.57 773.33 413.93Q772.68 413.28 771.68 413.25L771.68 413.25L771.68 413.20ZM773.98 409.58L774.25 409.58L774.25 412.17L771.68 412.17L771.68 412.12Q772.68 412.09 773.33 411.43Q773.98 410.77 773.98 409.77L773.98 409.77L773.98 409.58ZM772.55 404.18L775.57 404.18L775.57 407.34L775.30 407.34L775.30 407.01Q775.30 405.77 774.56 405.02Q773.82 404.26 772.55 404.23L772.55 404.23L772.55 404.18ZM775.57 402.61L775.57 402.61L775.57 403.40L772.28 403.10Q772.87 403.10 773.53 403.02Q774.20 402.94 774.76 402.83Q775.33 402.72 775.57 402.61ZM764.07 420.03L764.15 420.03L764.15 422L761.99 422L761.99 421.73Q761.99 421.73 762.17 421.73Q762.34 421.73 762.34 421.73L762.34 421.73Q763.04 421.73 763.54 421.23Q764.04 420.73 764.07 420.03L764.07 420.03ZM764.15 403.10L764.15 405.07L764.07 405.07Q764.04 404.37 763.54 403.87Q763.04 403.37 762.34 403.37L762.34 403.37Q762.34 403.37 762.17 403.37Q761.99 403.37 761.99 403.37L761.99 403.37L761.99 403.10L764.15 403.10ZM792.47 403.10L796.52 403.10L796.52 422L792.47 422L792.47 403.10ZM796.44 412.12L802.65 412.12L802.65 413.25L796.44 413.25L796.44 412.12ZM796.44 403.10L803.98 403.10L803.98 404.26L796.44 404.26L796.44 403.10ZM800.09 413.20L802.65 413.20L802.65 415.79L802.38 415.79L802.38 415.57Q802.38 414.57 801.74 413.93Q801.09 413.28 800.09 413.25L800.09 413.25L800.09 413.20ZM802.38 409.58L802.65 409.58L802.65 412.17L800.09 412.17L800.09 412.12Q801.09 412.09 801.74 411.43Q802.38 410.77 802.38 409.77L802.38 409.77L802.38 409.58ZM801.06 404.18L803.98 404.18L803.98 407.18L803.71 407.18L803.71 406.91Q803.71 405.69 802.99 404.98Q802.28 404.26 801.06 404.26L801.06 404.26L801.06 404.18ZM803.98 402.61L803.98 402.61L803.98 403.40L800.68 403.10Q801.28 403.10 801.94 403.02Q802.60 402.94 803.17 402.83Q803.73 402.72 803.98 402.61ZM792.47 420.03L792.56 420.03L792.56 422L790.40 422L790.40 421.73Q790.40 421.73 790.57 421.73Q790.75 421.73 790.75 421.73L790.75 421.73Q791.45 421.73 791.95 421.23Q792.45 420.73 792.47 420.03L792.47 420.03ZM792.56 403.10L792.56 405.07L792.47 405.07Q792.45 404.37 791.95 403.87Q791.45 403.37 790.75 403.37L790.75 403.37Q790.75 403.37 790.57 403.37Q790.40 403.37 790.40 403.37L790.40 403.37L790.40 403.10L792.56 403.10ZM796.44 422L796.44 420.03L796.52 420.03Q796.55 420.73 797.05 421.23Q797.55 421.73 798.25 421.73L798.25 421.73Q798.25 421.73 798.41 421.73Q798.58 421.73 798.60 421.73L798.60 421.73L798.60 422L796.44 422ZM819.91 403.10L823.96 403.10L823.96 422L819.91 422L819.91 403.10ZM823.88 420.84L831.08 420.84L831.73 422L823.88 422L823.88 420.84ZM823.88 412.12L830.09 412.12L830.09 413.25L823.88 413.25L823.88 412.12ZM823.88 403.10L831.41 403.10L831.41 404.26L823.88 404.26L823.88 403.10ZM832.79 416.46L833.06 416.46L831.81 422L826.52 422L827.49 420.84Q828.84 420.84 829.87 420.31Q830.90 419.79 831.62 418.80Q832.35 417.81 832.79 416.46L832.79 416.46ZM827.52 413.20L830.09 413.20L830.09 415.79L829.82 415.79L829.82 415.57Q829.82 414.57 829.17 413.93Q828.52 413.28 827.52 413.25L827.52 413.25L827.52 413.20ZM829.82 409.58L830.09 409.58L830.09 412.17L827.52 412.17L827.52 412.12Q828.52 412.09 829.17 411.43Q829.82 410.77 829.82 409.77L829.82 409.77L829.82 409.58ZM828.38 404.18L831.41 404.18L831.41 407.34L831.14 407.34L831.14 407.01Q831.14 405.77 830.40 405.02Q829.65 404.26 828.38 404.23L828.38 404.23L828.38 404.18ZM831.41 402.61L831.41 402.61L831.41 403.40L828.11 403.10Q828.71 403.10 829.37 403.02Q830.03 402.94 830.60 402.83Q831.17 402.72 831.41 402.61ZM819.91 420.03L819.99 420.03L819.99 422L817.83 422L817.83 421.73Q817.83 421.73 818.00 421.73Q818.18 421.73 818.18 421.73L818.18 421.73Q818.88 421.73 819.38 421.23Q819.88 420.73 819.91 420.03L819.91 420.03ZM819.99 403.10L819.99 405.07L819.91 405.07Q819.88 404.37 819.38 403.87Q818.88 403.37 818.18 403.37L818.18 403.37Q818.18 403.37 818.00 403.37Q817.83 403.37 817.83 403.37L817.83 403.37L817.83 403.10L819.99 403.10ZM848.34 405.99L848.01 402.69L865.24 419.11L865.56 422.38L848.34 405.99ZM848.07 420.08L848.15 420.08L848.15 422L845.91 422L845.91 421.73Q845.91 421.73 846.15 421.73Q846.39 421.73 846.42 421.73L846.42 421.73Q847.10 421.73 847.58 421.24Q848.07 420.76 848.07 420.08L848.07 420.08ZM851.85 420.08L851.93 420.08Q851.93 420.76 852.41 421.24Q852.90 421.73 853.58 421.73L853.58 421.73Q853.60 421.73 853.85 421.73Q854.09 421.73 854.09 421.73L854.09 421.73L854.09 422L851.85 422L851.85 420.08ZM847.74 402.69L848.01 402.69L851.90 406.83L851.93 422L848.07 422L848.07 406.07Q848.07 404.56 847.91 403.63Q847.74 402.69 847.74 402.69L847.74 402.69ZM861.65 403.10L865.48 403.10L865.48 418.92Q865.48 419.92 865.56 420.72Q865.64 421.51 865.73 421.95Q865.81 422.38 865.81 422.38L865.81 422.38L865.56 422.38L861.65 418.00L861.65 403.10ZM865.40 403.10L867.64 403.10L867.64 403.37Q867.64 403.37 867.40 403.37Q867.16 403.37 867.16 403.37L867.16 403.37Q866.48 403.37 866.00 403.84Q865.51 404.31 865.48 405.02L865.48 405.02L865.40 405.02L865.40 403.10ZM859.46 403.37L859.46 403.10L861.70 403.10L861.70 405.02L861.65 405.02Q861.62 404.31 861.15 403.84Q860.68 403.37 859.97 403.37L859.97 403.37Q859.97 403.37 859.73 403.37Q859.49 403.37 859.46 403.37L859.46 403.37ZM887.27 402.72L887.27 402.72Q887.81 402.72 888.61 402.78Q889.40 402.83 890.26 402.92Q891.11 403.02 891.74 403.11Q892.37 403.21 892.62 403.32L892.62 403.32L892.29 406.96L892.02 406.96Q892.02 405.56 890.98 404.71Q889.94 403.86 888.22 403.86L888.22 403.86Q886.65 403.86 885.69 404.61Q884.73 405.37 884.68 406.45L884.68 406.45Q884.65 407.26 885.19 407.85Q885.73 408.45 886.57 408.96L886.57 408.96L891.73 412.31Q892.97 413.01 893.60 414.14Q894.24 415.28 894.16 416.79L894.16 416.79Q894.02 419.44 892.13 420.91Q890.24 422.38 887.00 422.38L887.00 422.38Q885.81 422.38 884.69 422.18Q883.57 421.97 882.71 421.61Q881.84 421.24 881.33 420.73L881.33 420.73Q881.12 420.14 881.14 419.30Q881.17 418.46 881.40 417.60Q881.63 416.74 881.98 416.17L881.98 416.17L882.22 416.17Q882.11 417.55 882.72 418.72Q883.33 419.89 884.50 420.58Q885.68 421.27 887.30 421.24L887.30 421.24Q889.08 421.22 890.05 420.34Q891.02 419.46 891.02 418.22L891.02 418.22Q891.02 417.38 890.53 416.71Q890.03 416.03 888.89 415.41L888.89 415.41L884.17 412.28Q882.74 411.47 882.09 410.20Q881.44 408.93 881.57 407.45L881.57 407.45Q881.71 406.04 882.41 404.98Q883.11 403.91 884.34 403.32Q885.57 402.72 887.27 402.72ZM889.40 402.99L892.64 402.99L892.59 403.56L889.40 403.56L889.40 402.99ZM909.95 403.10L914.00 403.10L914.00 422L909.95 422L909.95 403.10ZM913.92 420.84L921.13 420.84L921.78 422L913.92 422L913.92 420.84ZM913.92 412.12L920.13 412.12L920.13 413.25L913.92 413.25L913.92 412.12ZM913.92 403.10L921.45 403.10L921.45 404.26L913.92 404.26L913.92 403.10ZM922.83 416.46L923.10 416.46L921.86 422L916.57 422L917.54 420.84Q918.89 420.84 919.91 420.31Q920.94 419.79 921.67 418.80Q922.40 417.81 922.83 416.46L922.83 416.46ZM917.57 413.20L920.13 413.20L920.13 415.79L919.86 415.79L919.86 415.57Q919.86 414.57 919.21 413.93Q918.56 413.28 917.57 413.25L917.57 413.25L917.57 413.20ZM919.86 409.58L920.13 409.58L920.13 412.17L917.57 412.17L917.57 412.12Q918.56 412.09 919.21 411.43Q919.86 410.77 919.86 409.77L919.86 409.77L919.86 409.58ZM918.43 404.18L921.45 404.18L921.45 407.34L921.18 407.34L921.18 407.01Q921.18 405.77 920.44 405.02Q919.70 404.26 918.43 404.23L918.43 404.23L918.43 404.18ZM921.45 402.61L921.45 402.61L921.45 403.40L918.16 403.10Q918.75 403.10 919.42 403.02Q920.08 402.94 920.64 402.83Q921.21 402.72 921.45 402.61ZM909.95 420.03L910.03 420.03L910.03 422L907.87 422L907.87 421.73Q907.87 421.73 908.05 421.73Q908.22 421.73 908.22 421.73L908.22 421.73Q908.93 421.73 909.43 421.23Q909.92 420.73 909.95 420.03L909.95 420.03ZM910.03 403.10L910.03 405.07L909.95 405.07Q909.92 404.37 909.43 403.87Q908.93 403.37 908.22 403.37L908.22 403.37Q908.22 403.37 908.05 403.37Q907.87 403.37 907.87 403.37L907.87 403.37L907.87 403.10L910.03 403.10ZM965.17 402.72L965.17 402.72Q968.41 402.72 970.80 403.92Q973.19 405.13 974.50 407.31Q975.80 409.50 975.80 412.55L975.80 412.55Q975.80 415.57 974.50 417.77Q973.19 419.98 970.80 421.18Q968.41 422.38 965.17 422.38L965.17 422.38Q961.93 422.38 959.54 421.18Q957.15 419.98 955.85 417.79Q954.56 415.60 954.56 412.55L954.56 412.55Q954.56 409.53 955.85 407.33Q957.15 405.13 959.54 403.92Q961.93 402.72 965.17 402.72ZM965.17 421.24L965.17 421.24Q967.08 421.24 968.46 420.18Q969.84 419.11 970.59 417.17Q971.35 415.22 971.35 412.55L971.35 412.55Q971.35 409.88 970.59 407.93Q969.84 405.99 968.46 404.92Q967.08 403.86 965.17 403.86L965.17 403.86Q963.28 403.86 961.89 404.92Q960.50 405.99 959.74 407.93Q958.98 409.88 958.98 412.55L958.98 412.55Q958.98 415.22 959.74 417.17Q960.50 419.11 961.89 420.18Q963.28 421.24 965.17 421.24ZM991.52 403.10L995.57 403.10L995.57 422L991.52 422L991.52 403.10ZM995.49 412.12L1001.70 412.12L1001.70 413.25L995.49 413.25L995.49 412.12ZM995.49 403.10L1003.02 403.10L1003.02 404.26L995.49 404.26L995.49 403.10ZM999.13 413.20L1001.70 413.20L1001.70 415.79L1001.43 415.79L1001.43 415.57Q1001.43 414.57 1000.78 413.93Q1000.13 413.28 999.13 413.25L999.13 413.25L999.13 413.20ZM1001.43 409.58L1001.70 409.58L1001.70 412.17L999.13 412.17L999.13 412.12Q1000.13 412.09 1000.78 411.43Q1001.43 410.77 1001.43 409.77L1001.43 409.77L1001.43 409.58ZM1000.10 404.18L1003.02 404.18L1003.02 407.18L1002.75 407.18L1002.75 406.91Q1002.75 405.69 1002.04 404.98Q1001.32 404.26 1000.10 404.26L1000.10 404.26L1000.10 404.18ZM1003.02 402.61L1003.02 402.61L1003.02 403.40L999.73 403.10Q1000.32 403.10 1000.98 403.02Q1001.64 402.94 1002.21 402.83Q1002.78 402.72 1003.02 402.61ZM991.52 420.03L991.60 420.03L991.60 422L989.44 422L989.44 421.73Q989.44 421.73 989.62 421.73Q989.79 421.73 989.79 421.73L989.79 421.73Q990.49 421.73 990.99 421.23Q991.49 420.73 991.52 420.03L991.52 420.03ZM991.60 403.10L991.60 405.07L991.52 405.07Q991.49 404.37 990.99 403.87Q990.49 403.37 989.79 403.37L989.79 403.37Q989.79 403.37 989.62 403.37Q989.44 403.37 989.44 403.37L989.44 403.37L989.44 403.10L991.60 403.10ZM995.49 422L995.49 420.03L995.57 420.03Q995.60 420.73 996.10 421.23Q996.59 421.73 997.30 421.73L997.30 421.73Q997.30 421.73 997.46 421.73Q997.62 421.73 997.65 421.73L997.65 421.73L997.65 422L995.49 422ZM1040.82 403.18L1044.87 403.18L1044.87 422L1040.82 422L1040.82 403.18ZM1034.21 403.07L1051.49 403.07L1051.49 404.21L1034.21 404.21L1034.21 403.07ZM1048.46 404.13L1051.49 404.13L1051.49 407.31L1051.22 407.29L1051.22 406.99Q1051.22 405.72 1050.47 404.98Q1049.73 404.23 1048.46 404.21L1048.46 404.21L1048.46 404.13ZM1051.49 402.59L1051.49 402.59L1051.49 403.37L1048.19 403.07Q1048.79 403.07 1049.45 402.99Q1050.11 402.91 1050.68 402.80Q1051.24 402.69 1051.49 402.59ZM1040.82 420.03L1040.90 420.03L1040.90 422L1038.74 422L1038.74 421.73Q1038.74 421.73 1038.92 421.73Q1039.09 421.73 1039.09 421.73L1039.09 421.73Q1039.79 421.73 1040.29 421.23Q1040.79 420.73 1040.82 420.03L1040.82 420.03ZM1044.79 422L1044.79 420.03L1044.87 420.03Q1044.90 420.73 1045.40 421.23Q1045.90 421.73 1046.60 421.73L1046.60 421.73Q1046.60 421.73 1046.77 421.73Q1046.95 421.73 1046.95 421.73L1046.95 421.73L1046.95 422L1044.79 422ZM1034.21 404.13L1037.20 404.13L1037.20 404.21Q1035.96 404.23 1035.22 404.98Q1034.48 405.72 1034.48 406.99L1034.48 406.99L1034.48 407.29L1034.21 407.31L1034.21 404.13ZM1034.21 403.37L1034.21 402.59Q1034.48 402.69 1035.03 402.80Q1035.58 402.91 1036.26 402.99Q1036.93 403.07 1037.50 403.07L1037.50 403.07L1034.21 403.37ZM1079.19 403.10L1083.24 403.10L1083.24 422L1079.19 422L1079.19 403.10ZM1066.39 403.10L1070.44 403.10L1070.44 422L1066.39 422L1066.39 403.10ZM1070.17 412.01L1079.43 412.01L1079.43 413.17L1070.17 413.17L1070.17 412.01ZM1066.39 420.03L1066.47 420.03L1066.47 422L1064.31 422L1064.31 421.73Q1064.31 421.73 1064.49 421.73Q1064.66 421.73 1064.66 421.73L1064.66 421.73Q1065.36 421.73 1065.86 421.23Q1066.36 420.73 1066.39 420.03L1066.39 420.03ZM1066.47 403.10L1066.47 405.07L1066.39 405.07Q1066.36 404.37 1065.86 403.87Q1065.36 403.37 1064.66 403.37L1064.66 403.37Q1064.66 403.37 1064.49 403.37Q1064.31 403.37 1064.31 403.37L1064.31 403.37L1064.31 403.10L1066.47 403.10ZM1070.36 422L1070.36 420.03L1070.44 420.03Q1070.47 420.73 1070.97 421.23Q1071.47 421.73 1072.17 421.73L1072.17 421.73Q1072.17 421.73 1072.33 421.73Q1072.49 421.73 1072.52 421.73L1072.52 421.73L1072.52 422L1070.36 422ZM1070.44 405.07L1070.36 405.07L1070.36 403.10L1072.52 403.10L1072.52 403.37Q1072.49 403.37 1072.33 403.37Q1072.17 403.37 1072.17 403.37L1072.17 403.37Q1071.47 403.37 1070.97 403.87Q1070.47 404.37 1070.44 405.07L1070.44 405.07ZM1079.19 420.03L1079.27 420.03L1079.27 422L1077.11 422L1077.11 421.73Q1077.14 421.73 1077.30 421.73Q1077.46 421.73 1077.46 421.73L1077.46 421.73Q1078.16 421.73 1078.67 421.23Q1079.19 420.73 1079.19 420.03L1079.19 420.03ZM1079.27 403.10L1079.27 405.07L1079.19 405.07Q1079.19 404.37 1078.67 403.87Q1078.16 403.37 1077.46 403.37L1077.46 403.37Q1077.46 403.37 1077.30 403.37Q1077.14 403.37 1077.11 403.37L1077.11 403.37L1077.11 403.10L1079.27 403.10ZM1083.16 422L1083.16 420.03L1083.24 420.03Q1083.26 420.73 1083.76 421.23Q1084.26 421.73 1084.97 421.73L1084.97 421.73Q1084.97 421.73 1085.14 421.73Q1085.32 421.73 1085.32 421.73L1085.32 421.73L1085.32 422L1083.16 422ZM1083.24 405.07L1083.16 405.07L1083.16 403.10L1085.32 403.10L1085.32 403.37Q1085.32 403.37 1085.14 403.37Q1084.97 403.37 1084.97 403.37L1084.97 403.37Q1084.26 403.37 1083.76 403.87Q1083.26 404.37 1083.24 405.07L1083.24 405.07ZM1101.00 403.10L1105.05 403.10L1105.05 422L1101.00 422L1101.00 403.10ZM1104.97 420.84L1112.18 420.84L1112.83 422L1104.97 422L1104.97 420.84ZM1104.97 412.12L1111.18 412.12L1111.18 413.25L1104.97 413.25L1104.97 412.12ZM1104.97 403.10L1112.51 403.10L1112.51 404.26L1104.97 404.26L1104.97 403.10ZM1113.88 416.46L1114.15 416.46L1112.91 422L1107.62 422L1108.59 420.84Q1109.94 420.84 1110.97 420.31Q1111.99 419.79 1112.72 418.80Q1113.45 417.81 1113.88 416.46L1113.88 416.46ZM1108.62 413.20L1111.18 413.20L1111.18 415.79L1110.91 415.79L1110.91 415.57Q1110.91 414.57 1110.26 413.93Q1109.62 413.28 1108.62 413.25L1108.62 413.25L1108.62 413.20ZM1110.91 409.58L1111.18 409.58L1111.18 412.17L1108.62 412.17L1108.62 412.12Q1109.62 412.09 1110.26 411.43Q1110.91 410.77 1110.91 409.77L1110.91 409.77L1110.91 409.58ZM1109.48 404.18L1112.51 404.18L1112.51 407.34L1112.24 407.34L1112.24 407.01Q1112.24 405.77 1111.49 405.02Q1110.75 404.26 1109.48 404.23L1109.48 404.23L1109.48 404.18ZM1112.51 402.61L1112.51 402.61L1112.51 403.40L1109.21 403.10Q1109.81 403.10 1110.47 403.02Q1111.13 402.94 1111.70 402.83Q1112.26 402.72 1112.51 402.61ZM1101.00 420.03L1101.08 420.03L1101.08 422L1098.92 422L1098.92 421.73Q1098.92 421.73 1099.10 421.73Q1099.28 421.73 1099.28 421.73L1099.28 421.73Q1099.98 421.73 1100.48 421.23Q1100.98 420.73 1101.00 420.03L1101.00 420.03ZM1101.08 403.10L1101.08 405.07L1101.00 405.07Q1100.98 404.37 1100.48 403.87Q1099.98 403.37 1099.28 403.37L1099.28 403.37Q1099.28 403.37 1099.10 403.37Q1098.92 403.37 1098.92 403.37L1098.92 403.37L1098.92 403.10L1101.08 403.10ZM1164.67 414.44L1164.67 414.44L1164.67 418.89Q1164.02 419.70 1162.74 420.51Q1161.46 421.32 1159.67 421.85Q1157.89 422.38 1155.71 422.38L1155.71 422.38Q1152.63 422.38 1150.33 421.18Q1148.04 419.98 1146.77 417.76Q1145.50 415.55 1145.50 412.52L1145.50 412.52Q1145.50 409.50 1146.76 407.31Q1148.01 405.13 1150.35 403.92Q1152.68 402.72 1155.87 402.72L1155.87 402.72Q1157.35 402.72 1158.76 402.92Q1160.16 403.13 1161.35 403.45Q1162.54 403.77 1163.32 404.21L1163.32 404.21L1163.37 408.82L1163.13 408.82Q1162.62 406.99 1161.65 405.89Q1160.67 404.80 1159.39 404.33Q1158.11 403.86 1156.68 403.86L1156.68 403.86Q1154.49 403.86 1152.97 404.92Q1151.44 405.99 1150.67 407.96Q1149.90 409.93 1149.90 412.69L1149.90 412.69Q1149.90 415.28 1150.62 417.21Q1151.33 419.14 1152.71 420.18Q1154.09 421.22 1156.06 421.24L1156.06 421.24Q1157.06 421.24 1157.99 420.93Q1158.92 420.62 1159.62 420.03Q1160.32 419.44 1160.62 418.57L1160.62 418.57L1160.65 414.44Q1160.65 413.23 1159.27 413.23L1159.27 413.23L1158.84 413.23L1158.84 412.95L1166.42 412.95L1166.42 413.23L1166.02 413.23Q1164.62 413.23 1164.67 414.44ZM1185.19 403.10L1185.19 403.10L1188.67 403.10Q1189.89 403.10 1191.05 403.37Q1192.21 403.64 1193.11 404.23Q1194.02 404.83 1194.56 405.80Q1195.10 406.77 1195.10 408.20L1195.10 408.20Q1195.10 409.34 1194.63 410.46Q1194.15 411.58 1193.18 412.37Q1192.21 413.17 1190.67 413.33L1190.67 413.33Q1191.53 413.60 1192.25 414.31Q1192.97 415.01 1193.42 415.71L1193.42 415.71Q1193.45 415.76 1193.74 416.19Q1194.02 416.63 1194.44 417.26Q1194.86 417.90 1195.31 418.54Q1195.77 419.19 1196.15 419.68L1196.15 419.68Q1196.75 420.41 1197.23 420.85Q1197.72 421.30 1198.26 421.50Q1198.80 421.70 1199.50 421.73L1199.50 421.73L1199.50 422L1196.85 422Q1195.40 422 1194.21 421.74Q1193.02 421.49 1192.10 420.87Q1191.18 420.25 1190.51 419.19L1190.51 419.19Q1190.29 418.87 1190.04 418.37Q1189.78 417.87 1189.51 417.30Q1189.24 416.74 1188.98 416.21Q1188.73 415.68 1188.54 415.25Q1188.35 414.82 1188.27 414.57L1188.27 414.57Q1187.92 413.71 1187.44 413.28Q1186.97 412.85 1186.43 412.77L1186.43 412.77L1186.43 412.50Q1186.51 412.50 1186.76 412.50Q1187.00 412.50 1187.27 412.50L1187.27 412.50Q1188.00 412.50 1188.69 412.20Q1189.37 411.90 1189.91 411.23Q1190.45 410.55 1190.67 409.36L1190.67 409.36Q1190.72 409.12 1190.77 408.80Q1190.81 408.47 1190.78 408.07L1190.78 408.07Q1190.70 406.12 1189.81 405.22Q1188.92 404.31 1187.59 404.29L1187.59 404.29Q1187.21 404.26 1186.77 404.27Q1186.32 404.29 1185.96 404.29Q1185.59 404.29 1185.46 404.29L1185.46 404.29Q1185.46 404.26 1185.39 403.98Q1185.32 403.69 1185.26 403.40Q1185.19 403.10 1185.19 403.10ZM1181.49 403.10L1185.54 403.10L1185.54 422L1181.49 422L1181.49 403.10ZM1181.49 420.03L1181.57 420.03L1181.57 422L1179.41 422L1179.41 421.73Q1179.44 421.73 1179.59 421.73Q1179.74 421.73 1179.76 421.73L1179.76 421.73Q1180.46 421.73 1180.96 421.23Q1181.46 420.73 1181.49 420.03L1181.49 420.03ZM1181.57 403.10L1181.57 405.07L1181.49 405.07Q1181.46 404.37 1180.96 403.87Q1180.46 403.37 1179.76 403.37L1179.76 403.37Q1179.74 403.37 1179.59 403.37Q1179.44 403.37 1179.41 403.37L1179.41 403.37L1179.41 403.10L1181.57 403.10ZM1185.46 422L1185.46 420.03L1185.54 420.03Q1185.54 420.73 1186.05 421.23Q1186.57 421.73 1187.27 421.73L1187.27 421.73Q1187.32 421.73 1187.46 421.73Q1187.59 421.73 1187.59 421.73L1187.59 421.73L1187.59 422L1185.46 422ZM1221.64 402.72L1221.64 402.72Q1224.88 402.72 1227.27 403.92Q1229.66 405.13 1230.97 407.31Q1232.28 409.50 1232.28 412.55L1232.28 412.55Q1232.28 415.57 1230.97 417.77Q1229.66 419.98 1227.27 421.18Q1224.88 422.38 1221.64 422.38L1221.64 422.38Q1218.40 422.38 1216.01 421.18Q1213.62 419.98 1212.32 417.79Q1211.03 415.60 1211.03 412.55L1211.03 412.55Q1211.03 409.53 1212.32 407.33Q1213.62 405.13 1216.01 403.92Q1218.40 402.72 1221.64 402.72ZM1221.64 421.24L1221.64 421.24Q1223.56 421.24 1224.93 420.18Q1226.31 419.11 1227.07 417.17Q1227.82 415.22 1227.82 412.55L1227.82 412.55Q1227.82 409.88 1227.07 407.93Q1226.31 405.99 1224.93 404.92Q1223.56 403.86 1221.64 403.86L1221.64 403.86Q1219.75 403.86 1218.36 404.92Q1216.97 405.99 1216.21 407.93Q1215.46 409.88 1215.46 412.55L1215.46 412.55Q1215.46 415.22 1216.21 417.17Q1216.97 419.11 1218.36 420.18Q1219.75 421.24 1221.64 421.24ZM1256.39 417.33L1254.71 422.54L1245.78 403.26L1250.61 403.26L1256.39 417.33ZM1254.96 422.54L1254.71 422.54L1254.63 419.25L1261.49 403.18L1263.44 403.18L1256.28 419.00Q1256.23 419.17 1256.02 419.61Q1255.82 420.06 1255.58 420.62Q1255.34 421.19 1255.16 421.72Q1254.98 422.24 1254.96 422.54L1254.96 422.54ZM1262.60 405.07L1260.68 405.07Q1261.03 404.26 1260.60 403.82Q1260.17 403.37 1259.66 403.37L1259.66 403.37L1259.41 403.37L1259.41 403.10L1265.19 403.10L1265.19 403.37Q1265.19 403.37 1265.07 403.37Q1264.95 403.37 1264.95 403.37L1264.95 403.37Q1264.35 403.37 1263.69 403.76Q1263.03 404.15 1262.60 405.07L1262.60 405.07ZM1251.37 405.07L1251.37 405.07L1246.61 405.07Q1246.18 404.15 1245.52 403.76Q1244.86 403.37 1244.24 403.37L1244.24 403.37Q1244.24 403.37 1244.13 403.37Q1244.02 403.37 1244.02 403.37L1244.02 403.37L1244.02 403.10L1252.61 403.10L1252.61 403.37L1252.37 403.37Q1251.85 403.37 1251.46 403.82Q1251.07 404.26 1251.37 405.07ZM1278.99 403.10L1283.04 403.10L1283.04 422L1278.99 422L1278.99 403.10ZM1282.96 420.84L1290.17 420.84L1290.81 422L1282.96 422L1282.96 420.84ZM1282.96 412.12L1289.17 412.12L1289.17 413.25L1282.96 413.25L1282.96 412.12ZM1282.96 403.10L1290.49 403.10L1290.49 404.26L1282.96 404.26L1282.96 403.10ZM1291.87 416.46L1292.14 416.46L1290.89 422L1285.60 422L1286.57 420.84Q1287.92 420.84 1288.95 420.31Q1289.98 419.79 1290.71 418.80Q1291.43 417.81 1291.87 416.46L1291.87 416.46ZM1286.60 413.20L1289.17 413.20L1289.17 415.79L1288.90 415.79L1288.90 415.57Q1288.90 414.57 1288.25 413.93Q1287.60 413.28 1286.60 413.25L1286.60 413.25L1286.60 413.20ZM1288.90 409.58L1289.17 409.58L1289.17 412.17L1286.60 412.17L1286.60 412.12Q1287.60 412.09 1288.25 411.43Q1288.90 410.77 1288.90 409.77L1288.90 409.77L1288.90 409.58ZM1287.47 404.18L1290.49 404.18L1290.49 407.34L1290.22 407.34L1290.22 407.01Q1290.22 405.77 1289.48 405.02Q1288.73 404.26 1287.47 404.23L1287.47 404.23L1287.47 404.18ZM1290.49 402.61L1290.49 402.61L1290.49 403.40L1287.20 403.10Q1287.79 403.10 1288.45 403.02Q1289.11 402.94 1289.68 402.83Q1290.25 402.72 1290.49 402.61ZM1278.99 420.03L1279.07 420.03L1279.07 422L1276.91 422L1276.91 421.73Q1276.91 421.73 1277.08 421.73Q1277.26 421.73 1277.26 421.73L1277.26 421.73Q1277.96 421.73 1278.46 421.23Q1278.96 420.73 1278.99 420.03L1278.99 420.03ZM1279.07 403.10L1279.07 405.07L1278.99 405.07Q1278.96 404.37 1278.46 403.87Q1277.96 403.37 1277.26 403.37L1277.26 403.37Q1277.26 403.37 1277.08 403.37Q1276.91 403.37 1276.91 403.37L1276.91 403.37L1276.91 403.10L1279.07 403.10Z" fill="#b9c4ae"/>
</svg>